<svg width="121" height="121" viewBox="0 0 121 121" fill="none" xmlns="http://www.w3.org/2000/svg">
<path d="M23.0306 75.6343L2.52555 96.1394C1.2545 97.4105 1.2545 99.4712 2.52555 100.742C3.7966 102.013 5.85738 102.013 7.12843 100.742L27.6967 80.174M68.4997 59.7744C68.4997 73.8577 57.0829 85.2744 42.9997 85.2744C28.9164 85.2744 17.4997 73.8577 17.4997 59.7744C17.4997 45.6912 28.9164 34.2744 42.9997 34.2744C57.0829 34.2744 68.4997 45.6912 68.4997 59.7744ZM46.4997 64.7744C46.4997 67.812 44.0373 70.2744 40.9997 70.2744C37.9621 70.2744 35.4997 67.812 35.4997 64.7744C35.4997 61.7368 37.9621 59.2744 40.9997 59.2744C44.0373 59.2744 46.4997 61.7368 46.4997 64.7744ZM46.4997 44.7744C46.4997 47.812 44.0373 50.2744 40.9997 50.2744C37.9621 50.2744 35.4997 47.812 35.4997 44.7744C35.4997 41.7368 37.9621 39.2744 40.9997 39.2744C44.0373 39.2744 46.4997 41.7368 46.4997 44.7744ZM46.4997 24.7744C46.4997 27.812 44.0373 30.2744 40.9997 30.2744C37.9621 30.2744 35.4997 27.812 35.4997 24.7744C35.4997 21.7368 37.9621 19.2744 40.9997 19.2744C44.0373 19.2744 46.4997 21.7368 46.4997 24.7744ZM55.4997 69.2744H93.4997C95.7088 69.2744 97.4997 67.4836 97.4997 65.2744C97.4997 63.0653 95.7088 61.2744 93.4997 61.2744H55.4997C53.2905 61.2744 51.4997 63.0653 51.4997 65.2744C51.4997 67.4836 53.2905 69.2744 55.4997 69.2744ZM55.4997 49.2744H93.4997C95.7088 49.2744 97.4997 47.4836 97.4997 45.2744C97.4997 43.0653 95.7088 41.2744 93.4997 41.2744H55.4997C53.2905 41.2744 51.4997 43.0653 51.4997 45.2744C51.4997 47.4836 53.2905 49.2744 55.4997 49.2744ZM55.4997 29.2744H93.4997C95.7088 29.2744 97.4997 27.4836 97.4997 25.2744C97.4997 23.0653 95.7088 21.2744 93.4997 21.2744H55.4997C53.2905 21.2744 51.4997 23.0653 51.4997 25.2744C51.4997 27.4836 53.2905 29.2744 55.4997 29.2744Z" stroke="url(#paint0_linear)" stroke-width="2"/>
<defs>
<linearGradient id="paint0_linear" x1="1.57277" y1="34.7281" x2="42.7424" y2="116.415" gradientUnits="userSpaceOnUse">
<stop stop-color="#5A1C97"/>
<stop offset="0.9999" stop-color="#2B25A6"/>
</linearGradient>
</defs>
</svg>
