<svg width="93" height="33" viewBox="0 0 93 33" fill="none" xmlns="http://www.w3.org/2000/svg">
<path fill-rule="evenodd" clip-rule="evenodd" d="M35.4851 30.688C35.9963 31.2683 36.6949 31.6312 37.5809 31.7767C38.44 31.9178 39.1911 31.7931 39.8343 31.4024C40.5043 31.0162 40.9165 30.3533 41.0708 29.4136L43.4854 14.7149C43.6397 13.7753 43.4613 13.0153 42.95 12.4351C42.4656 11.8592 41.7938 11.5007 40.9347 11.3596C40.0756 11.2185 39.3111 11.341 38.6411 11.7273C37.9711 12.1135 37.5589 12.7764 37.4045 13.7161L34.99 28.4148C34.8356 29.3544 35.0007 30.1122 35.4851 30.688ZM42.035 5.21538C42.5642 5.85375 43.3658 6.26114 44.4397 6.43754C45.5136 6.61395 46.4034 6.4844 47.109 6.04889C47.8191 5.58653 48.2513 4.88553 48.4057 3.94589C48.5556 3.0331 48.3526 2.25531 47.7964 1.61253C47.2716 0.947307 46.4856 0.528701 45.4386 0.356707C44.3647 0.180304 43.4749 0.309856 42.7692 0.745364C42.0636 1.18087 41.6335 1.86845 41.4792 2.80809C41.3248 3.74773 41.5101 4.55016 42.035 5.21538ZM90.0832 27.5447C89.5236 27.5568 88.9514 27.5693 88.446 27.4682C87.1707 27.2131 86.108 26.1929 84.8326 24.705C83.5573 23.2171 81.1303 20.4625 81.1303 20.4625L86.558 15.2796C87.1838 14.6538 87.4967 13.9873 87.4967 13.2799C87.4967 12.5181 87.211 11.8651 86.6396 11.321C86.0683 10.7497 85.4017 10.464 84.64 10.464C83.9054 10.464 83.2388 10.7633 82.6403 11.3618L74.4782 19.4014V4.79138C74.4782 3.83915 74.179 3.11817 73.5804 2.62845C73.0091 2.13872 72.2881 1.89386 71.4175 1.89386C70.5196 1.89386 69.7715 2.13872 69.1729 2.62845C68.6016 3.11817 68.3159 3.83915 68.3159 4.79138V28.1756C68.3159 29.1278 68.6016 29.8488 69.1729 30.3385C69.7715 30.8283 70.5196 31.0731 71.4175 31.0731C72.2881 31.0731 73.0091 30.8283 73.5804 30.3385C74.179 29.8488 74.4782 29.1278 74.4782 28.1756V21.9316L82.282 30.3385C83.5573 31.6138 85.4703 32.782 87.5958 32.782C90.0297 32.782 91.6343 32.1443 92.4845 31.0731C93.2723 30.0806 93.1222 28.5309 92.272 27.8933C91.7587 27.5083 90.9356 27.5262 90.0832 27.5447ZM11.7298 7.60727C12.2195 7.00872 13.0221 6.66863 14.1376 6.58701L15.1986 6.50539C16.7766 6.36936 17.5656 5.59397 17.5656 4.17921C17.5656 2.73726 16.627 2.01628 14.7497 2.01628L14.0152 2.05709L12.9541 2.13871C10.4239 2.32916 8.43777 3.17256 6.99581 4.66894C5.55385 6.16531 4.83287 8.21942 4.83287 10.8313H3.20047C1.37761 10.8313 0.466187 11.6067 0.466187 13.1574C0.466187 14.681 1.37761 15.4428 3.20047 15.4428H4.83287V28.1756C4.83287 29.1278 5.11854 29.8488 5.68989 30.3385C6.28843 30.8282 7.03662 31.0731 7.93444 31.0731C8.80506 31.0731 9.52604 30.8282 10.0974 30.3385C10.6959 29.8488 10.9952 29.1278 10.9952 28.1756V15.4428H13.8519C15.702 15.4428 16.627 14.681 16.627 13.1574C16.627 11.6067 15.702 10.8313 13.8519 10.8313H10.9952V10.1375C10.9952 9.04922 11.2401 8.20581 11.7298 7.60727ZM50.3537 29.9304C51.9045 30.7738 53.7137 31.1955 55.7815 31.1955C57.033 31.1955 58.2301 31.0459 59.3728 30.7466C60.5154 30.4473 61.6173 29.9661 62.3927 29.4815C63.1681 28.9969 63.7755 28.34 64.215 27.6807C64.9235 26.618 65.2778 24.9176 64.0025 24.0673C62.6352 23.1558 61.0267 23.9398 60.6016 24.2799C59.3953 25.245 57.8384 25.9803 56.5569 25.9803C55.5003 25.9803 53.7999 25.6394 53.0472 24.705C52.2944 23.7706 51.8637 22.5982 51.8637 20.7481C51.8637 18.8981 52.2582 17.4969 53.0472 16.5447C53.8634 15.5652 55.0333 15.0755 56.5569 15.0755C57.1282 15.0755 57.6315 15.1571 58.0668 15.3204C58.5293 15.4836 59.0463 15.7149 59.6176 16.0142C60.1345 16.259 60.5426 16.4495 60.8419 16.5855C61.1684 16.6943 61.5085 16.7487 61.8622 16.7487C62.4063 16.7487 62.8416 16.5311 63.1681 16.0958C63.4946 15.6333 63.6578 15.0483 63.6578 14.3409C63.6578 13.3343 63.2361 12.5725 62.3927 12.0556C61.5221 11.5114 60.529 11.0897 59.4136 10.7905C58.3253 10.4912 57.237 10.3415 56.1488 10.3415C54.0538 10.3415 52.2038 10.7769 50.5986 11.6475C48.9934 12.5181 47.7419 13.756 46.844 15.3612C45.9734 16.9392 45.5381 18.7756 45.5381 20.8706C45.5381 22.9655 45.9462 24.7883 46.7624 26.3391C47.6058 27.8899 48.8029 29.087 50.3537 29.9304ZM21.2793 25.7677V5.15013C21.2793 3.66226 21.917 1.96184 24.4676 1.96184C27.0183 1.96184 27.6559 3.66226 27.6559 5.15013V23.8548C27.6559 25.3415 28.407 25.4561 29.2692 25.5877C29.8863 25.6819 30.5603 25.7848 31.0568 26.4054C31.907 27.4682 31.5137 28.956 31.0568 29.5146C29.7814 31.0733 27.6559 31.5108 25.9455 31.2605C24.7652 31.0878 23.5612 30.5419 22.647 29.5146C21.7162 28.4684 21.2793 27.1402 21.2793 25.7677Z" fill="url(#paint0_linear)"/>
<defs>
<linearGradient id="paint0_linear" x1="0.466672" y1="6.37437" x2="8.45026" y2="45.1236" gradientUnits="userSpaceOnUse">
<stop stop-color="#5A1C97"/>
<stop offset="0.9999" stop-color="#2B25A6"/>
</linearGradient>
</defs>
</svg>
