<svg width="122" height="121" viewBox="0 0 122 121" fill="none" xmlns="http://www.w3.org/2000/svg">
<path d="M72.5192 55.5179L72.9574 56.4168L72.5192 55.5179ZM10.9808 55.5179L10.5426 56.4168H10.5426L10.9808 55.5179ZM89.2052 44.0976L88.609 43.2948L89.2052 44.0976ZM91.0647 44.0976L90.5789 44.9717C90.8393 45.1164 91.1506 45.1375 91.4281 45.0292C91.7057 44.9209 91.9205 44.6946 92.0141 44.4118L91.0647 44.0976ZM91.9954 42.9833L91.6578 42.042L91.9954 42.9833ZM93.5907 43.1264L93.117 44.007C93.5803 44.2562 94.1574 44.1039 94.4373 43.6586L93.5907 43.1264ZM95.4258 42.5069L95.7763 41.5703L95.4258 42.5069ZM96.3162 43.8807L95.3162 43.8916C95.32 44.237 95.5018 44.5561 95.7971 44.7354C96.0924 44.9147 96.4594 44.9289 96.7676 44.7729L96.3162 43.8807ZM98.0627 43.8807L97.4557 44.6754L98.0627 43.8807ZM98.6713 45.0375L97.6789 45.1608C97.7196 45.4887 97.9197 45.7753 98.2134 45.9265C98.5072 46.0778 98.8567 46.0742 99.1473 45.9169L98.6713 45.0375ZM99.8207 45.3433L100.605 44.7223H100.605L99.8207 45.3433ZM100.75 46.8451L101.74 46.983C101.78 46.6965 101.694 46.4068 101.504 46.1886C101.314 45.9704 101.039 45.8451 100.75 45.8451V46.8451ZM98.5833 62.4006V63.4006C99.0823 63.4006 99.5049 63.0328 99.5738 62.5386L98.5833 62.4006ZM89.9167 62.4006L88.9262 62.5386C88.9951 63.0328 89.4177 63.4006 89.9167 63.4006V62.4006ZM87.75 46.8451V45.8451C87.4607 45.8451 87.1856 45.9704 86.9957 46.1886C86.8058 46.4068 86.7197 46.6965 86.7596 46.983L87.75 46.8451ZM84.75 62.4006V61.4006C84.1977 61.4006 83.75 61.8484 83.75 62.4006H84.75ZM103.75 62.4006H104.75C104.75 61.8484 104.302 61.4006 103.75 61.4006V62.4006ZM103.75 67.4006V68.4006C104.302 68.4006 104.75 67.9529 104.75 67.4006H103.75ZM84.75 67.4006H83.75C83.75 67.9529 84.1977 68.4006 84.75 68.4006V67.4006ZM86.25 84.4006C86.25 84.9529 86.6977 85.4006 87.25 85.4006C87.8023 85.4006 88.25 84.9529 88.25 84.4006H86.25ZM100.25 84.4006C100.25 84.9529 100.698 85.4006 101.25 85.4006C101.802 85.4006 102.25 84.9529 102.25 84.4006H100.25ZM11.9808 42.4006C11.9808 41.0547 12.3274 39.8142 13.0871 38.9254C13.8225 38.0649 15.0587 37.4006 17.1346 37.4006V35.4006C14.5951 35.4006 12.7544 36.2364 11.5668 37.6259C10.4034 38.9871 9.98077 40.7465 9.98077 42.4006H11.9808ZM17.1346 37.4006H35.5962V35.4006H17.1346V37.4006ZM35.5962 37.4006C37.672 37.4006 38.9082 38.0649 39.6437 38.9254C40.4034 39.8142 40.75 41.0547 40.75 42.4006H42.75C42.75 40.7465 42.3274 38.9871 41.164 37.6259C39.9764 36.2364 38.1357 35.4006 35.5962 35.4006V37.4006ZM40.75 42.4006V63.4006H42.75V42.4006H40.75ZM41.75 62.4006H14.0577V64.4006H41.75V62.4006ZM15.0577 63.4006V60.4006H13.0577V63.4006H15.0577ZM41.75 64.4006H69.4423V62.4006H41.75V64.4006ZM70.4423 63.4006V60.4006H68.4423V63.4006H70.4423ZM73.5192 42.4006C73.5192 40.7465 73.0966 38.9871 71.9333 37.6259C70.7456 36.2364 68.9049 35.4006 66.3654 35.4006V37.4006C68.4413 37.4006 69.6775 38.0649 70.4129 38.9254C71.1726 39.8142 71.5192 41.0547 71.5192 42.4006H73.5192ZM66.3654 35.4006H47.9038V37.4006H66.3654V35.4006ZM47.9038 35.4006C45.3643 35.4006 43.5236 36.2364 42.336 37.6259C41.1726 38.9871 40.75 40.7465 40.75 42.4006H42.75C42.75 41.0547 43.0966 39.8142 43.8563 38.9254C44.5918 38.0649 45.828 37.4006 47.9038 37.4006V35.4006ZM7.90385 53.9006C5.36488 53.9006 3.53768 54.7349 2.3547 56.0421C1.19182 57.3271 0.75 58.9602 0.75 60.4006H2.75C2.75 59.3411 3.07741 58.2242 3.83761 57.3841C4.57771 56.5663 5.82743 55.9006 7.90385 55.9006V53.9006ZM0.75 60.4006V75.4006H2.75V60.4006H0.75ZM0.75 75.4006C0.75 77.9 1.61754 79.7065 3.04248 80.8643C4.43174 81.993 6.22213 82.4006 7.90385 82.4006V80.4006C6.50864 80.4006 5.2221 80.0582 4.30367 79.312C3.42092 78.5948 2.75 77.4012 2.75 75.4006H0.75ZM7.90385 82.4006C9.58556 82.4006 11.3759 81.993 12.7652 80.8643C14.1901 79.7065 15.0577 77.9 15.0577 75.4006H13.0577C13.0577 77.4012 12.3868 78.5948 11.504 79.312C10.5856 80.0582 9.29905 80.4006 7.90385 80.4006V82.4006ZM15.0577 75.4006V63.4006H13.0577V75.4006H15.0577ZM68.4423 63.4006V75.4006H70.4423V63.4006H68.4423ZM68.4423 75.4006C68.4423 77.9 69.3099 79.7065 70.7348 80.8643C72.1241 81.993 73.9144 82.4006 75.5962 82.4006V80.4006C74.201 80.4006 72.9144 80.0582 71.996 79.312C71.1132 78.5948 70.4423 77.4012 70.4423 75.4006H68.4423ZM75.5962 82.4006C77.2779 82.4006 79.0683 81.993 80.4575 80.8643C81.8825 79.7065 82.75 77.9 82.75 75.4006H80.75C80.75 77.4012 80.0791 78.5948 79.1963 79.312C78.2779 80.0582 76.9914 80.4006 75.5962 80.4006V82.4006ZM82.75 75.4006V60.4006H80.75V75.4006H82.75ZM82.75 60.4006C82.75 58.9602 82.3082 57.3271 81.1453 56.0421C79.9623 54.7349 78.1351 53.9006 75.5962 53.9006V55.9006C77.6726 55.9006 78.9223 56.5663 79.6624 57.3841C80.4226 58.2242 80.75 59.3411 80.75 60.4006H82.75ZM75.5962 53.9006C74.2453 53.9006 73.0722 54.1359 72.081 54.6191L72.9574 56.4168C73.6151 56.0962 74.4736 55.9006 75.5962 55.9006V53.9006ZM72.081 54.6191C70.7236 55.2808 69.8155 56.3535 69.2522 57.418C68.6955 58.4701 68.4423 59.5757 68.4423 60.4006H70.4423C70.4423 59.9314 70.6013 59.1447 71.02 58.3534C71.4321 57.5747 72.0624 56.8531 72.9574 56.4168L72.081 54.6191ZM71.5192 42.4006V55.5179H73.5192V42.4006H71.5192ZM7.90385 55.9006C9.02638 55.9006 9.88486 56.0962 10.5426 56.4168L11.419 54.6191C10.4278 54.1359 9.25469 53.9006 7.90385 53.9006V55.9006ZM10.5426 56.4168C11.4376 56.8531 12.0679 57.5747 12.48 58.3534C12.8987 59.1447 13.0577 59.9314 13.0577 60.4006H15.0577C15.0577 59.5757 14.8045 58.4701 14.2478 57.418C13.6845 56.3535 12.7764 55.2808 11.419 54.6191L10.5426 56.4168ZM9.98077 42.4006V55.5179H11.9808V42.4006H9.98077ZM6.90385 81.4006V82.4006H8.90385V81.4006H6.90385ZM9.90385 85.4006H18.2115V83.4006H9.90385V85.4006ZM7.90385 82.4006H20.2115V80.4006H7.90385V82.4006ZM21.2115 82.4006V81.4006H19.2115V82.4006H21.2115ZM74.5962 81.4006V82.4006H76.5962V81.4006H74.5962ZM73.5962 83.4006H65.2885V85.4006H73.5962V83.4006ZM20.2115 82.4006H63.2885V80.4006H20.2115V82.4006ZM63.2885 82.4006H75.5962V80.4006H63.2885V82.4006ZM64.2885 82.4006V81.4006H62.2885V82.4006H64.2885ZM65.2885 83.4006C64.7362 83.4006 64.2885 82.9529 64.2885 82.4006H62.2885C62.2885 84.0575 63.6316 85.4006 65.2885 85.4006V83.4006ZM74.5962 82.4006C74.5962 82.9529 74.1484 83.4006 73.5962 83.4006V85.4006C75.253 85.4006 76.5962 84.0575 76.5962 82.4006H74.5962ZM18.2115 85.4006C19.8684 85.4006 21.2115 84.0575 21.2115 82.4006H19.2115C19.2115 82.9529 18.7638 83.4006 18.2115 83.4006V85.4006ZM6.90385 82.4006C6.90385 84.0575 8.24699 85.4006 9.90385 85.4006V83.4006C9.35156 83.4006 8.90385 82.9529 8.90385 82.4006H6.90385ZM89.6796 46.3703C89.5713 46.1696 89.467 45.8516 89.4724 45.554C89.4772 45.2957 89.5571 45.0819 89.8015 44.9004L88.609 43.2948C87.7787 43.9114 87.4867 44.7581 87.4728 45.5173C87.4595 46.2372 87.6897 46.894 87.9194 47.3199L89.6796 46.3703ZM89.8015 44.9004C89.8775 44.8439 90.0072 44.81 90.2352 44.8561C90.34 44.8773 90.4356 44.9104 90.5053 44.9391C90.5391 44.953 90.564 44.9647 90.5775 44.9714C90.5842 44.9747 90.5879 44.9766 90.5883 44.9768C90.5885 44.9769 90.5878 44.9765 90.5863 44.9757C90.5855 44.9753 90.5845 44.9747 90.5833 44.9741C90.5827 44.9737 90.582 44.9734 90.5813 44.973C90.5809 44.9728 90.5805 44.9726 90.5801 44.9723C90.5799 44.9722 90.5796 44.9721 90.5795 44.972C90.5792 44.9718 90.5789 44.9717 91.0647 44.0976C91.5505 43.2235 91.5502 43.2233 91.5499 43.2231C91.5497 43.2231 91.5494 43.2229 91.5492 43.2228C91.5487 43.2225 91.5482 43.2223 91.5478 43.222C91.5468 43.2214 91.5457 43.2209 91.5446 43.2202C91.5423 43.219 91.5398 43.2176 91.537 43.2161C91.5314 43.2131 91.5246 43.2095 91.5168 43.2054C91.5013 43.1972 91.4813 43.187 91.4574 43.1753C91.4097 43.1519 91.3452 43.1221 91.2669 43.0898C91.1123 43.0261 90.8922 42.9484 90.6316 42.8958C90.1289 42.7941 89.3288 42.7602 88.609 43.2948L89.8015 44.9004ZM91.0647 44.0976C92.0141 44.4118 92.014 44.412 92.0139 44.4123C92.0139 44.4124 92.0138 44.4126 92.0137 44.4128C92.0136 44.4131 92.0135 44.4135 92.0134 44.4138C92.0132 44.4144 92.013 44.4149 92.0128 44.4154C92.0125 44.4165 92.0122 44.4173 92.012 44.4179C92.0116 44.4192 92.0114 44.4197 92.0114 44.4196C92.0116 44.4192 92.0127 44.4161 92.0147 44.4106C92.0189 44.3994 92.0268 44.3792 92.0384 44.3525C92.0621 44.2975 92.0978 44.2235 92.1439 44.1481C92.2564 43.9643 92.337 43.9232 92.3329 43.9246L91.6578 42.042C91.0162 42.2721 90.6314 42.7881 90.438 43.1042C90.3311 43.2788 90.2537 43.4406 90.2026 43.5588C90.1767 43.6187 90.1567 43.6694 90.1424 43.7076C90.1352 43.7267 90.1294 43.7429 90.1249 43.7556C90.1226 43.762 90.1207 43.7675 90.1191 43.7721C90.1183 43.7745 90.1176 43.7766 90.117 43.7784C90.1167 43.7794 90.1164 43.7803 90.1161 43.7811C90.116 43.7815 90.1159 43.7819 90.1157 43.7823C90.1157 43.7825 90.1156 43.7827 90.1155 43.7828C90.1154 43.7831 90.1154 43.7834 91.0647 44.0976ZM92.3329 43.9246C92.4837 43.8706 92.6686 43.8745 92.8597 43.9202C92.9495 43.9416 93.0246 43.9687 93.0744 43.9891C93.0988 43.9991 93.1157 44.0069 93.1235 44.0107C93.1274 44.0125 93.129 44.0133 93.128 44.0128C93.1275 44.0125 93.1263 44.012 93.1245 44.011C93.1236 44.0105 93.1225 44.01 93.1213 44.0093C93.1206 44.009 93.12 44.0086 93.1193 44.0082C93.1189 44.0081 93.1185 44.0079 93.1182 44.0077C93.118 44.0076 93.1177 44.0074 93.1176 44.0073C93.1173 44.0072 93.117 44.007 93.5907 43.1264C94.0645 42.2457 94.0641 42.2455 94.0638 42.2454C94.0637 42.2453 94.0634 42.2451 94.0632 42.245C94.0628 42.2448 94.0624 42.2446 94.0619 42.2443C94.061 42.2438 94.06 42.2433 94.059 42.2428C94.057 42.2417 94.0548 42.2405 94.0523 42.2393C94.0475 42.2367 94.0417 42.2337 94.0352 42.2304C94.0221 42.2238 94.0057 42.2156 93.9863 42.2063C93.9474 42.1877 93.8957 42.1642 93.8328 42.1385C93.7082 42.0874 93.534 42.025 93.3247 41.975C92.9175 41.8776 92.3047 41.81 91.6578 42.042L92.3329 43.9246ZM93.5907 43.1264C94.4373 43.6586 94.4371 43.659 94.4368 43.6594C94.4368 43.6595 94.4365 43.6599 94.4363 43.6601C94.436 43.6607 94.4357 43.6612 94.4354 43.6616C94.4348 43.6626 94.4342 43.6635 94.4337 43.6644C94.4326 43.6661 94.4316 43.6675 94.4308 43.6688C94.4291 43.6714 94.428 43.673 94.4274 43.674C94.4262 43.6758 94.4269 43.6746 94.4296 43.671C94.435 43.6635 94.4474 43.6472 94.4661 43.6258C94.5055 43.5807 94.5609 43.5268 94.6265 43.4828C94.7332 43.4113 94.8558 43.3613 95.0753 43.4435L95.7763 41.5703C94.8255 41.2145 94.0305 41.4743 93.5123 41.8219C93.2654 41.9876 93.0815 42.1707 92.9597 42.3102C92.8978 42.381 92.8491 42.4439 92.8136 42.4926C92.7958 42.517 92.7811 42.5381 92.7696 42.5552C92.7638 42.5638 92.7588 42.5713 92.7545 42.5779C92.7524 42.5811 92.7505 42.5841 92.7488 42.5868C92.7479 42.5882 92.7471 42.5895 92.7463 42.5907C92.7459 42.5913 92.7455 42.5919 92.7452 42.5925C92.745 42.5928 92.7447 42.5932 92.7446 42.5933C92.7444 42.5937 92.7441 42.5941 93.5907 43.1264ZM95.0753 43.4435C95.1526 43.4724 95.2124 43.5292 95.2636 43.6665C95.289 43.7346 95.3034 43.8028 95.3108 43.8544C95.3143 43.879 95.3158 43.8966 95.3164 43.9044C95.3166 43.9082 95.3166 43.9093 95.3166 43.9074C95.3165 43.9064 95.3165 43.9046 95.3164 43.902C95.3164 43.9007 95.3163 43.8992 95.3163 43.8974C95.3163 43.8966 95.3163 43.8957 95.3163 43.8947C95.3163 43.8942 95.3163 43.8937 95.3162 43.8932C95.3162 43.8929 95.3162 43.8925 95.3162 43.8924C95.3162 43.892 95.3162 43.8916 96.3162 43.8807C97.3161 43.8697 97.3161 43.8693 97.3161 43.8689C97.3161 43.8688 97.3161 43.8683 97.3161 43.868C97.3161 43.8675 97.3161 43.8669 97.3161 43.8662C97.316 43.865 97.316 43.8637 97.316 43.8623C97.316 43.8596 97.3159 43.8566 97.3158 43.8533C97.3157 43.8467 97.3154 43.839 97.3151 43.8303C97.3144 43.8129 97.3133 43.7912 97.3116 43.7658C97.308 43.7152 97.3018 43.6486 97.2905 43.5701C97.2683 43.4156 97.2249 43.202 97.1376 42.9678C96.9633 42.5004 96.5779 41.8704 95.7763 41.5703L95.0753 43.4435ZM96.3162 43.8807C96.7676 44.7729 96.7674 44.7731 96.7671 44.7732C96.767 44.7733 96.7667 44.7734 96.7665 44.7735C96.7662 44.7737 96.7658 44.7739 96.7655 44.774C96.7648 44.7744 96.7642 44.7747 96.7637 44.7749C96.7626 44.7755 96.7617 44.7759 96.7611 44.7762C96.7598 44.7769 96.7594 44.7771 96.7598 44.7768C96.7607 44.7764 96.7648 44.7744 96.772 44.7712C96.7864 44.7648 96.812 44.7538 96.8462 44.7408C96.9169 44.7139 97.0124 44.6833 97.1152 44.6637C97.3554 44.6181 97.4418 44.6647 97.4557 44.6754L98.6697 43.086C97.9877 42.565 97.2008 42.6117 96.7418 42.6989C96.4949 42.7458 96.2842 42.8148 96.1362 42.871C96.0611 42.8996 95.9991 42.9259 95.9534 42.9465C95.9304 42.9567 95.9113 42.9657 95.8965 42.9728C95.889 42.9763 95.8827 42.9794 95.8773 42.9821C95.8747 42.9834 95.8723 42.9845 95.8702 42.9856C95.8691 42.9861 95.8682 42.9866 95.8672 42.9871C95.8668 42.9873 95.8663 42.9875 95.8659 42.9878C95.8657 42.9879 95.8654 42.988 95.8653 42.9881C95.865 42.9882 95.8647 42.9884 96.3162 43.8807ZM97.4557 44.6754C97.4968 44.7067 97.5632 44.7933 97.6205 44.95C97.6456 45.0184 97.6618 45.0809 97.6713 45.1245C97.6759 45.1457 97.6785 45.1607 97.6797 45.1677C97.6803 45.1712 97.6805 45.1725 97.6803 45.1715C97.6802 45.171 97.6801 45.1698 97.6798 45.168C97.6797 45.1672 97.6796 45.1661 97.6794 45.1649C97.6793 45.1643 97.6793 45.1636 97.6792 45.163C97.6791 45.1626 97.6791 45.1623 97.679 45.1619C97.679 45.1617 97.679 45.1614 97.679 45.1613C97.6789 45.1611 97.6789 45.1608 98.6713 45.0375C99.6636 44.9142 99.6636 44.9139 99.6636 44.9136C99.6636 44.9135 99.6635 44.9132 99.6635 44.913C99.6634 44.9126 99.6634 44.9122 99.6633 44.9117C99.6632 44.9109 99.6631 44.9099 99.663 44.909C99.6627 44.907 99.6624 44.9049 99.6621 44.9025C99.6615 44.8978 99.6607 44.8924 99.6598 44.8861C99.6581 44.8737 99.6557 44.8582 99.6527 44.84C99.6466 44.8037 99.6379 44.7559 99.6255 44.6993C99.6012 44.5872 99.5615 44.4341 99.4986 44.2624C99.3801 43.9387 99.1422 43.4468 98.6697 43.0859L97.4557 44.6754ZM98.6713 45.0375C99.1473 45.9169 99.1468 45.9172 99.1463 45.9174C99.1462 45.9175 99.1457 45.9178 99.1454 45.918C99.1447 45.9183 99.1441 45.9186 99.1435 45.919C99.1423 45.9196 99.1411 45.9203 99.1399 45.9209C99.1375 45.9222 99.1352 45.9233 99.1331 45.9245C99.1288 45.9267 99.1249 45.9287 99.1213 45.9304C99.1143 45.9339 99.1087 45.9365 99.1043 45.9384C99.0958 45.9422 99.091 45.9438 99.089 45.9445C99.0874 45.945 99.0837 45.9464 99.0743 45.9466C99.061 45.9469 99.0381 45.9444 99.015 45.934C98.9895 45.9226 99.0003 45.9181 99.0369 45.9643L100.605 44.7223C100.136 44.1312 99.5398 43.9363 99.0318 43.9471C98.7993 43.952 98.6047 43.9987 98.468 44.0434C98.3984 44.0661 98.3401 44.0895 98.2948 44.1096C98.2721 44.1196 98.2523 44.129 98.2357 44.1372C98.2274 44.1413 98.2199 44.1451 98.2131 44.1486C98.2098 44.1503 98.2066 44.152 98.2036 44.1536C98.2021 44.1544 98.2007 44.1551 98.1993 44.1559C98.1986 44.1563 98.1979 44.1566 98.1972 44.157C98.1969 44.1572 98.1964 44.1574 98.1962 44.1575C98.1957 44.1578 98.1952 44.1581 98.6713 45.0375ZM99.0369 45.9643C99.0419 45.9706 99.0335 45.9603 99.0288 45.9408C99.0254 45.9265 99.0303 45.9323 99.0256 45.9743C99.0205 46.02 99.0069 46.0858 98.9771 46.189C98.9625 46.2396 98.9459 46.2928 98.9262 46.355C98.9076 46.4138 98.8848 46.4852 98.8636 46.5554L100.778 47.1348C100.828 46.9695 100.971 46.5699 101.013 46.1967C101.063 45.7498 100.996 45.2162 100.605 44.7223L99.0369 45.9643ZM99.8207 45.8451H88.7995V47.8451H99.8207V45.8451ZM99.8207 47.8451H100.75V45.8451H99.8207V47.8451ZM99.7596 46.7071L97.5929 62.2627L99.5738 62.5386L101.74 46.983L99.7596 46.7071ZM98.5833 61.4006H89.9167V63.4006H98.5833V61.4006ZM90.9071 62.2627L88.7404 46.7071L86.7596 46.983L88.9262 62.5386L90.9071 62.2627ZM87.75 47.8451H88.7995V45.8451H87.75V47.8451ZM84.75 63.4006H103.75V61.4006H84.75V63.4006ZM102.75 62.4006V67.4006H104.75V62.4006H102.75ZM85.75 67.4006V62.4006H83.75V67.4006H85.75ZM87.25 66.4006H84.75V68.4006H87.25V66.4006ZM86.25 67.4006V84.4006H88.25V67.4006H86.25ZM103.75 66.4006H101.25V68.4006H103.75V66.4006ZM101.25 66.4006H87.25V68.4006H101.25V66.4006ZM100.25 67.4006V84.4006H102.25V67.4006H100.25Z" fill="url(#paint0_linear)"/>
<defs>
<linearGradient id="paint0_linear" x1="1.75054" y1="45.4005" x2="17.052" y2="100.833" gradientUnits="userSpaceOnUse">
<stop stop-color="#5A1C97"/>
<stop offset="0.9999" stop-color="#2B25A6"/>
</linearGradient>
</defs>
</svg>
