<svg width="571" height="833" viewBox="0 0 571 833" fill="none" xmlns="http://www.w3.org/2000/svg">
<g filter="url(#filter0_dd)">
<path fill-rule="evenodd" clip-rule="evenodd" d="M470.509 187.787C475.375 153.535 459.685 132.666 425.427 127.799L231.5 100.248C197.242 95.3812 176.36 111.055 171.494 145.307L167.366 174.368C167.396 174.472 167.421 174.595 167.441 174.732L165.87 174.509L165.123 175.069L162.106 196.306L162.696 197.167L164.331 197.401C164.218 197.741 164.102 198.016 163.98 198.203L161.188 217.851C161.342 217.952 161.467 218.12 161.547 218.391C160.97 218.407 160.34 218.471 159.655 218.585L153.654 260.83C153.706 261.125 154.257 261.449 155.306 261.802C155.177 261.974 155.039 262.088 154.895 262.15L153.329 273.172C153.502 273.285 153.639 273.484 153.715 273.818L153.703 273.797C153.116 273.796 152.48 273.832 151.796 273.908L145.794 316.153C146.044 316.369 146.595 316.693 147.445 317.125C147.317 317.297 147.179 317.41 147.036 317.471L100.562 644.595C95.6972 678.839 111.385 699.713 145.645 704.58L224.66 715.805C225.506 715.498 227.017 715.426 228.702 715.665L228.791 715.678L228.82 715.682C228.871 715.689 228.921 715.697 228.971 715.704C228.998 715.708 229.025 715.711 229.052 715.715L257.063 719.698C258.595 719.953 259.88 720.411 260.556 720.905L339.572 732.13C373.831 736.997 394.712 721.315 399.577 687.071L448.151 345.165C448.017 344.976 447.916 344.68 447.854 344.309C449.198 344.299 449.799 343.623 449.799 343.623L459.481 275.468C459.481 275.468 459.227 275.551 457.678 274.934C457.853 274.546 458.049 274.254 458.247 274.096L470.509 187.787Z" fill="url(#paint0_linear)" fill-opacity="0.01"/>
<mask id="mask0" mask-type="alpha" maskUnits="userSpaceOnUse" x="99" y="99" width="373" height="634">
<path fill-rule="evenodd" clip-rule="evenodd" d="M470.509 187.787C475.375 153.535 459.685 132.666 425.427 127.799L231.5 100.248C197.242 95.3812 176.36 111.055 171.494 145.307L167.366 174.368C167.396 174.472 167.421 174.595 167.441 174.732L165.87 174.509L165.123 175.069L162.106 196.306L162.696 197.167L164.331 197.401C164.218 197.741 164.102 198.016 163.98 198.203L161.188 217.851C161.342 217.952 161.467 218.12 161.547 218.391C160.97 218.407 160.34 218.471 159.655 218.585L153.654 260.83C153.706 261.125 154.257 261.449 155.306 261.802C155.177 261.974 155.039 262.088 154.895 262.15L153.329 273.172C153.502 273.285 153.639 273.484 153.715 273.818L153.703 273.797C153.116 273.796 152.48 273.832 151.796 273.908L145.794 316.153C146.044 316.369 146.595 316.693 147.445 317.125C147.317 317.297 147.179 317.41 147.036 317.471L100.562 644.595C95.6972 678.839 111.385 699.713 145.645 704.58L224.66 715.805C225.506 715.498 227.017 715.426 228.702 715.665L228.791 715.678L228.82 715.682C228.871 715.689 228.921 715.697 228.971 715.704C228.998 715.708 229.025 715.711 229.052 715.715L257.063 719.698C258.595 719.953 259.88 720.411 260.556 720.905L339.572 732.13C373.831 736.997 394.712 721.315 399.577 687.071L448.151 345.165C448.017 344.976 447.916 344.68 447.854 344.309C449.198 344.299 449.799 343.623 449.799 343.623L459.481 275.468C459.481 275.468 459.227 275.551 457.678 274.934C457.853 274.546 458.049 274.254 458.247 274.096L470.509 187.787Z" fill="white"/>
</mask>
<g mask="url(#mask0)">
<g filter="url(#filter1_i)">
<path fill-rule="evenodd" clip-rule="evenodd" d="M470.509 187.787C475.375 153.535 459.685 132.666 425.427 127.799L231.5 100.248C197.242 95.3812 176.36 111.055 171.494 145.307L167.366 174.368C167.845 176.021 166.972 182.167 166.972 182.167L165.629 191.621C165.468 192.315 165.314 193.084 165.16 193.849C164.788 195.701 164.421 197.528 163.979 198.203L161.188 217.851C161.502 218.056 161.696 218.544 161.627 219.606L161.653 219.61L155.927 259.91C155.734 261.272 155.338 261.96 154.895 262.15L153.329 273.172C153.643 273.378 153.837 273.865 153.767 274.927L153.793 274.931L148.068 315.232C147.875 316.593 147.479 317.281 147.035 317.471L100.562 644.595C95.6972 678.839 111.385 699.713 145.645 704.58L224.66 715.805C225.506 715.498 227.017 715.426 228.702 715.665C228.742 715.671 228.781 715.676 228.82 715.682C228.898 715.693 228.975 715.705 229.052 715.715L257.062 719.698C258.594 719.953 259.88 720.412 260.556 720.905L339.571 732.13C373.831 736.997 394.712 721.315 399.577 687.071L448.151 345.165C447.968 344.906 447.846 344.447 447.801 343.869L447.922 341.743L457.224 276.268L457.25 276.272C457.481 275.224 457.86 274.405 458.247 274.096L470.509 187.787Z" fill="url(#paint1_linear)"/>
<path fill-rule="evenodd" clip-rule="evenodd" d="M470.509 187.787C475.375 153.535 459.685 132.666 425.427 127.799L231.5 100.248C197.242 95.3812 176.36 111.055 171.494 145.307L167.366 174.368C167.845 176.021 166.972 182.167 166.972 182.167L165.629 191.621C165.468 192.315 165.314 193.084 165.16 193.849C164.788 195.701 164.421 197.528 163.979 198.203L161.188 217.851C161.502 218.056 161.696 218.544 161.627 219.606L161.653 219.61L155.927 259.91C155.734 261.272 155.338 261.96 154.895 262.15L153.329 273.172C153.643 273.378 153.837 273.865 153.767 274.927L153.793 274.931L148.068 315.232C147.875 316.593 147.479 317.281 147.035 317.471L100.562 644.595C95.6972 678.839 111.385 699.713 145.645 704.58L224.66 715.805C225.506 715.498 227.017 715.426 228.702 715.665C228.742 715.671 228.781 715.676 228.82 715.682C228.898 715.693 228.975 715.705 229.052 715.715L257.062 719.698C258.594 719.953 259.88 720.412 260.556 720.905L339.571 732.13C373.831 736.997 394.712 721.315 399.577 687.071L448.151 345.165C447.968 344.906 447.846 344.447 447.801 343.869L447.922 341.743L457.224 276.268L457.25 276.272C457.481 275.224 457.86 274.405 458.247 274.096L470.509 187.787Z" fill="url(#paint2_linear)"/>
</g>
<g filter="url(#filter2_ii)">
<path fill-rule="evenodd" clip-rule="evenodd" d="M421.291 134.355C455.991 139.285 467.284 155.169 462.347 189.924L392.234 683.446C387.297 718.194 372.127 729.611 336.025 724.482L149.781 698.023C115.779 693.193 102.988 677.803 107.825 643.756L178.038 149.533C182.975 114.778 198.946 102.767 233.646 107.697L421.291 134.355Z" fill="url(#paint3_linear)"/>
<path fill-rule="evenodd" clip-rule="evenodd" d="M421.291 134.355C455.991 139.285 467.284 155.169 462.347 189.924L392.234 683.446C387.297 718.194 372.127 729.611 336.025 724.482L149.781 698.023C115.779 693.193 102.988 677.803 107.825 643.756L178.038 149.533C182.975 114.778 198.946 102.767 233.646 107.697L421.291 134.355Z" fill="url(#paint4_linear)"/>
</g>
<rect x="101.855" y="635.491" width="4.9511" height="4.2438" transform="rotate(8.08571 101.855 635.491)" fill="url(#paint5_linear)" fill-opacity="0.1"/>
<rect x="395.268" y="677.176" width="5.6584" height="4.2438" transform="rotate(8.08571 395.268 677.176)" fill="url(#paint6_linear)" fill-opacity="0.1"/>
<rect x="170.699" y="150.906" width="4.9511" height="4.2438" transform="rotate(8.08571 170.699 150.906)" fill="url(#paint7_linear)" fill-opacity="0.1"/>
<rect x="464.111" y="192.59" width="5.6584" height="4.2438" transform="rotate(8.08571 464.111 192.59)" fill="url(#paint8_linear)" fill-opacity="0.1"/>
<g filter="url(#filter3_di)">
<path fill-rule="evenodd" clip-rule="evenodd" d="M456.098 279.322C456.439 277.281 456.982 275.773 457.273 275.203C458.849 275.833 459.106 275.749 459.106 275.749L449.424 343.904C449.424 343.904 448.805 344.601 447.415 344.59C447.261 344.345 447.078 343.702 447.384 340.661C447.782 337.86 455.758 281.364 456.098 279.322Z" fill="url(#paint9_linear)"/>
</g>
<mask id="mask1" mask-type="alpha" maskUnits="userSpaceOnUse" x="447" y="275" width="13" height="70">
<path fill-rule="evenodd" clip-rule="evenodd" d="M456.098 279.322C456.439 277.281 456.982 275.773 457.273 275.203C458.849 275.833 459.106 275.749 459.106 275.749L449.424 343.904C449.424 343.904 448.805 344.601 447.415 344.59C447.261 344.345 447.078 343.702 447.384 340.661C447.782 337.86 455.758 281.364 456.098 279.322Z" fill="white"/>
</mask>
<g mask="url(#mask1)">
<path fill-rule="evenodd" clip-rule="evenodd" d="M460.541 274.573C460.541 274.573 458.847 274.106 457.902 279.199C452.724 315.644 449.446 338.721 449.462 338.605C448.64 344.393 450.276 344.941 450.493 345.3L450.795 344.31C450.029 342.727 450.121 340.942 450.511 338.194C450.828 335.968 458.238 283.806 458.479 282.112C458.944 278.834 460.098 275.754 460.365 275.806L460.541 274.573Z" fill="#F7FAFF"/>
</g>
<g filter="url(#filter4_di)">
<path fill-rule="evenodd" clip-rule="evenodd" d="M153.69 278.176C153.931 276.12 154.186 274.678 153.704 273.796C153.116 273.794 152.48 273.831 151.796 273.906L145.794 316.151C146.054 316.375 146.636 316.716 147.541 317.172C147.981 316.676 148.104 316.611 148.656 313.605C149.054 310.804 153.448 280.232 153.69 278.176Z" fill="url(#paint10_linear)"/>
</g>
<mask id="mask2" mask-type="alpha" maskUnits="userSpaceOnUse" x="145" y="273" width="9" height="45">
<path fill-rule="evenodd" clip-rule="evenodd" d="M153.69 278.176C153.931 276.12 154.186 274.678 153.704 273.796C153.116 273.794 152.48 273.831 151.796 273.906L145.794 316.151C146.054 316.375 146.636 316.716 147.541 317.172C147.981 316.676 148.104 316.611 148.656 313.605C149.054 310.804 153.448 280.232 153.69 278.176Z" fill="white"/>
</mask>
<g mask="url(#mask2)">
<path fill-rule="evenodd" clip-rule="evenodd" d="M150.746 272.377C150.746 272.377 152.502 272.4 151.992 277.555L147.233 311.051C146.411 316.839 144.687 316.91 144.379 317.194L144.364 316.159C145.541 314.852 145.949 313.113 146.34 310.364L150.626 280.192C151.092 276.914 150.842 273.635 150.571 273.61L150.746 272.377Z" fill="#D0D5DA"/>
</g>
<g filter="url(#filter5_di)">
<path fill-rule="evenodd" clip-rule="evenodd" d="M161.549 222.855C161.791 220.799 161.902 218.711 161.596 218.39C161.007 218.403 160.36 218.468 159.655 218.585L153.654 260.83C153.707 261.128 154.268 261.455 155.337 261.812C155.788 261.41 156.156 260.817 156.516 258.283C156.914 255.482 161.307 224.911 161.549 222.855Z" fill="url(#paint11_linear)"/>
</g>
<mask id="mask3" mask-type="alpha" maskUnits="userSpaceOnUse" x="153" y="218" width="9" height="44">
<path fill-rule="evenodd" clip-rule="evenodd" d="M161.549 222.855C161.791 220.799 161.902 218.711 161.596 218.39C161.007 218.403 160.36 218.468 159.655 218.585L153.654 260.83C153.707 261.128 154.268 261.455 155.337 261.812C155.788 261.41 156.156 260.817 156.516 258.283C156.914 255.482 161.307 224.911 161.549 222.855Z" fill="white"/>
</mask>
<g mask="url(#mask3)">
<path fill-rule="evenodd" clip-rule="evenodd" d="M158.605 217.056C158.605 217.056 160.362 217.079 159.851 222.234L155.092 255.73C154.27 261.518 152.547 261.588 152.238 261.873L152.224 260.838C153.4 259.531 153.809 257.791 154.199 255.043L158.486 224.871C158.951 221.593 158.701 218.313 158.43 218.289L158.605 217.056Z" fill="#D0D5DA"/>
</g>
<g filter="url(#filter6_di)">
<path fill-rule="evenodd" clip-rule="evenodd" d="M167.619 177.615C167.857 175.942 167.593 174.754 167.593 174.754L165.87 174.509L165.123 175.069L162.106 196.306L162.696 197.167L164.375 197.41C164.375 197.41 165.052 195.686 165.331 193.722C165.528 192.331 167.44 178.874 167.619 177.615Z" fill="url(#paint12_linear)"/>
<path fill-rule="evenodd" clip-rule="evenodd" d="M167.619 177.615C167.857 175.942 167.593 174.754 167.593 174.754L165.87 174.509L165.123 175.069L162.106 196.306L162.696 197.167L164.375 197.41C164.375 197.41 165.052 195.686 165.331 193.722C165.528 192.331 167.44 178.874 167.619 177.615Z" fill="url(#paint13_linear)"/>
</g>
<mask id="mask4" mask-type="alpha" maskUnits="userSpaceOnUse" x="162" y="174" width="6" height="24">
<path fill-rule="evenodd" clip-rule="evenodd" d="M167.619 177.615C167.857 175.942 167.593 174.754 167.593 174.754L165.87 174.509L165.123 175.069L162.106 196.306L162.696 197.167L164.375 197.41C164.375 197.41 165.052 195.686 165.331 193.722C165.528 192.331 167.44 178.874 167.619 177.615Z" fill="white"/>
<path fill-rule="evenodd" clip-rule="evenodd" d="M167.619 177.615C167.857 175.942 167.593 174.754 167.593 174.754L165.87 174.509L165.123 175.069L162.106 196.306L162.696 197.167L164.375 197.41C164.375 197.41 165.052 195.686 165.331 193.722C165.528 192.331 167.44 178.874 167.619 177.615Z" stroke="white"/>
</mask>
<g mask="url(#mask4)">
<path fill-rule="evenodd" clip-rule="evenodd" d="M165.415 173.016C165.3 173 166.285 174.43 165.839 177.57L163.631 193.114C162.927 198.069 161.857 197.727 161.621 198.026L161.652 196.985C162.56 195.622 162.783 194.054 162.979 192.673L164.969 178.668C165.251 176.681 165.197 174.244 165.001 174.23L165.415 173.016Z" fill="url(#paint14_linear)" style="mix-blend-mode:soft-light"/>
</g>
<g filter="url(#filter7_di)">
<path fill-rule="evenodd" clip-rule="evenodd" d="M309.273 133.444C307.92 133.251 306.666 134.193 306.474 135.546C306.282 136.9 307.223 138.153 308.577 138.345L340.089 142.822C341.443 143.015 342.696 142.073 342.888 140.72C343.08 139.366 342.139 138.113 340.785 137.92L309.273 133.444Z" fill="#EEF0F1"/>
<path d="M306.649 135.571C306.828 134.314 307.991 133.44 309.248 133.619L340.76 138.095C342.017 138.274 342.892 139.438 342.713 140.695C342.534 141.952 341.371 142.826 340.114 142.647L308.602 138.17C307.345 137.992 306.471 136.828 306.649 135.571Z" stroke="url(#paint15_linear)" stroke-width="0.35365"/>
</g>
<g filter="url(#filter8_i)">
<path fill-rule="evenodd" clip-rule="evenodd" d="M360.768 144.441C361.724 142.301 360.765 139.791 358.625 138.835C356.486 137.878 353.976 138.838 353.019 140.977C352.063 143.117 353.022 145.627 355.162 146.584C357.301 147.54 359.811 146.581 360.768 144.441Z" fill="url(#paint16_linear)"/>
</g>
<g filter="url(#filter9_i)">
<path fill-rule="evenodd" clip-rule="evenodd" d="M359.476 143.864C360.114 142.437 359.474 140.764 358.048 140.126C356.622 139.489 354.948 140.128 354.311 141.555C353.673 142.981 354.312 144.654 355.739 145.292C357.165 145.93 358.839 145.29 359.476 143.864Z" fill="url(#paint17_radial)"/>
</g>
<mask id="mask5" mask-type="alpha" maskUnits="userSpaceOnUse" x="354" y="139" width="6" height="7">
<path fill-rule="evenodd" clip-rule="evenodd" d="M359.476 143.864C360.114 142.437 359.474 140.764 358.048 140.126C356.622 139.489 354.948 140.128 354.311 141.555C353.673 142.981 354.312 144.654 355.739 145.292C357.165 145.93 358.839 145.29 359.476 143.864Z" fill="white"/>
</mask>
<g mask="url(#mask5)">
</g>
</g>
<path opacity="0.01" fill-rule="evenodd" clip-rule="evenodd" d="M249.197 121.337C251.131 121.611 252.476 123.402 252.201 125.336L251.903 127.436C250.694 135.945 256.612 143.822 265.12 145.031L380.664 161.446C389.173 162.655 397.05 156.737 398.259 148.229L398.557 146.128C398.832 144.194 400.622 142.849 402.556 143.124L429.867 147.004C444.95 149.147 455.44 163.111 453.297 178.194L380.275 692.191C378.133 707.274 364.168 717.765 349.085 715.622L141.105 686.075C126.022 683.932 115.532 669.968 117.675 654.884L190.697 140.887C192.839 125.804 206.804 115.314 221.887 117.457L249.197 121.337Z" fill="#4A90E2"/>
<mask id="mask6" mask-type="alpha" maskUnits="userSpaceOnUse" x="117" y="117" width="337" height="599">
<path fill-rule="evenodd" clip-rule="evenodd" d="M249.197 121.337C251.131 121.611 252.476 123.402 252.201 125.336L251.903 127.436C250.694 135.945 256.612 143.822 265.12 145.031L380.664 161.446C389.173 162.655 397.05 156.737 398.259 148.229L398.557 146.128C398.832 144.194 400.622 142.849 402.556 143.124L429.867 147.004C444.95 149.147 455.44 163.111 453.297 178.194L380.275 692.191C378.133 707.274 364.168 717.765 349.085 715.622L141.105 686.075C126.022 683.932 115.532 669.968 117.675 654.884L190.697 140.887C192.839 125.804 206.804 115.314 221.887 117.457L249.197 121.337Z" fill="white"/>
</mask>
<g mask="url(#mask6)">
<rect x="194.576" y="113.577" width="265.237" height="574.327" transform="rotate(8.08571 194.576 113.577)" fill="#4A4A4A"/>
<rect x="194.576" y="113.577" width="265.237" height="574.327" transform="rotate(8.08571 194.576 113.577)" fill="#E8E2FF"/>
</g>
</g>
<defs>
<filter id="filter0_dd" x="0.67322" y="0.358004" width="569.725" height="831.662" filterUnits="userSpaceOnUse" color-interpolation-filters="sRGB">
<feFlood flood-opacity="0" result="BackgroundImageFix"/>
<feColorMatrix in="SourceAlpha" type="matrix" values="0 0 0 0 0 0 0 0 0 0 0 0 0 0 0 0 0 0 127 0"/>
<feOffset dx="-28.292" dy="28.292"/>
<feGaussianBlur stdDeviation="35.365"/>
<feColorMatrix type="matrix" values="0 0 0 0 0 0 0 0 0 0 0 0 0 0 0 0 0 0 0.1 0"/>
<feBlend mode="normal" in2="BackgroundImageFix" result="effect1_dropShadow"/>
<feColorMatrix in="SourceAlpha" type="matrix" values="0 0 0 0 0 0 0 0 0 0 0 0 0 0 0 0 0 0 127 0"/>
<feOffset dx="28.292" dy="-28.292"/>
<feGaussianBlur stdDeviation="35.365"/>
<feColorMatrix type="matrix" values="0 0 0 0 1 0 0 0 0 1 0 0 0 0 1 0 0 0 0.4 0"/>
<feBlend mode="normal" in2="effect1_dropShadow" result="effect2_dropShadow"/>
<feBlend mode="normal" in="SourceGraphic" in2="effect2_dropShadow" result="shape"/>
</filter>
<filter id="filter1_i" x="99.6951" y="99.38" width="371.681" height="633.618" filterUnits="userSpaceOnUse" color-interpolation-filters="sRGB">
<feFlood flood-opacity="0" result="BackgroundImageFix"/>
<feBlend mode="normal" in="SourceGraphic" in2="BackgroundImageFix" result="shape"/>
<feColorMatrix in="SourceAlpha" type="matrix" values="0 0 0 0 0 0 0 0 0 0 0 0 0 0 0 0 0 0 127 0" result="hardAlpha"/>
<feOffset/>
<feGaussianBlur stdDeviation="1.06095"/>
<feComposite in2="hardAlpha" operator="arithmetic" k2="-1" k3="1"/>
<feColorMatrix type="matrix" values="0 0 0 0 0 0 0 0 0 0 0 0 0 0 0 0 0 0 0.1 0"/>
<feBlend mode="normal" in2="shape" result="effect1_innerShadow"/>
</filter>
<filter id="filter2_ii" x="106.839" y="106.638" width="358.732" height="620.427" filterUnits="userSpaceOnUse" color-interpolation-filters="sRGB">
<feFlood flood-opacity="0" result="BackgroundImageFix"/>
<feBlend mode="normal" in="SourceGraphic" in2="BackgroundImageFix" result="shape"/>
<feColorMatrix in="SourceAlpha" type="matrix" values="0 0 0 0 0 0 0 0 0 0 0 0 0 0 0 0 0 0 127 0" result="hardAlpha"/>
<feOffset dy="1.4146"/>
<feGaussianBlur stdDeviation="2.1219"/>
<feComposite in2="hardAlpha" operator="arithmetic" k2="-1" k3="1"/>
<feColorMatrix type="matrix" values="0 0 0 0 1 0 0 0 0 1 0 0 0 0 1 0 0 0 0.5 0"/>
<feBlend mode="normal" in2="shape" result="effect1_innerShadow"/>
<feColorMatrix in="SourceAlpha" type="matrix" values="0 0 0 0 0 0 0 0 0 0 0 0 0 0 0 0 0 0 127 0" result="hardAlpha"/>
<feOffset dx="2.1219"/>
<feGaussianBlur stdDeviation="2.1219"/>
<feComposite in2="hardAlpha" operator="arithmetic" k2="-1" k3="1"/>
<feColorMatrix type="matrix" values="0 0 0 0 0 0 0 0 0 0 0 0 0 0 0 0 0 0 0.2 0"/>
<feBlend mode="normal" in2="effect1_innerShadow" result="effect2_innerShadow"/>
</filter>
<filter id="filter3_di" x="447.077" y="275.203" width="12.3831" height="69.3871" filterUnits="userSpaceOnUse" color-interpolation-filters="sRGB">
<feFlood flood-opacity="0" result="BackgroundImageFix"/>
<feColorMatrix in="SourceAlpha" type="matrix" values="0 0 0 0 0 0 0 0 0 0 0 0 0 0 0 0 0 0 127 0"/>
<feOffset dx="-0.14146"/>
<feColorMatrix type="matrix" values="0 0 0 0 0 0 0 0 0 0 0 0 0 0 0 0 0 0 0.3 0"/>
<feBlend mode="normal" in2="BackgroundImageFix" result="effect1_dropShadow"/>
<feBlend mode="normal" in="SourceGraphic" in2="effect1_dropShadow" result="shape"/>
<feColorMatrix in="SourceAlpha" type="matrix" values="0 0 0 0 0 0 0 0 0 0 0 0 0 0 0 0 0 0 127 0" result="hardAlpha"/>
<feOffset dx="0.35365"/>
<feGaussianBlur stdDeviation="0.35365"/>
<feComposite in2="hardAlpha" operator="arithmetic" k2="-1" k3="1"/>
<feColorMatrix type="matrix" values="0 0 0 0 0 0 0 0 0 0 0 0 0 0 0 0 0 0 0.3 0"/>
<feBlend mode="normal" in2="shape" result="effect2_innerShadow"/>
</filter>
<filter id="filter4_di" x="145.441" y="273.796" width="8.67804" height="43.3769" filterUnits="userSpaceOnUse" color-interpolation-filters="sRGB">
<feFlood flood-opacity="0" result="BackgroundImageFix"/>
<feColorMatrix in="SourceAlpha" type="matrix" values="0 0 0 0 0 0 0 0 0 0 0 0 0 0 0 0 0 0 127 0"/>
<feOffset dx="0.14146"/>
<feColorMatrix type="matrix" values="0 0 0 0 0 0 0 0 0 0 0 0 0 0 0 0 0 0 0.3 0"/>
<feBlend mode="normal" in2="BackgroundImageFix" result="effect1_dropShadow"/>
<feBlend mode="normal" in="SourceGraphic" in2="effect1_dropShadow" result="shape"/>
<feColorMatrix in="SourceAlpha" type="matrix" values="0 0 0 0 0 0 0 0 0 0 0 0 0 0 0 0 0 0 127 0" result="hardAlpha"/>
<feOffset dx="-0.35365"/>
<feGaussianBlur stdDeviation="0.35365"/>
<feComposite in2="hardAlpha" operator="arithmetic" k2="-1" k3="1"/>
<feColorMatrix type="matrix" values="0 0 0 0 0 0 0 0 0 0 0 0 0 0 0 0 0 0 0.3 0"/>
<feBlend mode="normal" in2="shape" result="effect2_innerShadow"/>
</filter>
<filter id="filter5_di" x="153.3" y="218.39" width="8.62349" height="43.422" filterUnits="userSpaceOnUse" color-interpolation-filters="sRGB">
<feFlood flood-opacity="0" result="BackgroundImageFix"/>
<feColorMatrix in="SourceAlpha" type="matrix" values="0 0 0 0 0 0 0 0 0 0 0 0 0 0 0 0 0 0 127 0"/>
<feOffset dx="0.14146"/>
<feColorMatrix type="matrix" values="0 0 0 0 0 0 0 0 0 0 0 0 0 0 0 0 0 0 0.3 0"/>
<feBlend mode="normal" in2="BackgroundImageFix" result="effect1_dropShadow"/>
<feBlend mode="normal" in="SourceGraphic" in2="effect1_dropShadow" result="shape"/>
<feColorMatrix in="SourceAlpha" type="matrix" values="0 0 0 0 0 0 0 0 0 0 0 0 0 0 0 0 0 0 127 0" result="hardAlpha"/>
<feOffset dx="-0.35365"/>
<feGaussianBlur stdDeviation="0.35365"/>
<feComposite in2="hardAlpha" operator="arithmetic" k2="-1" k3="1"/>
<feColorMatrix type="matrix" values="0 0 0 0 0 0 0 0 0 0 0 0 0 0 0 0 0 0 0.3 0"/>
<feBlend mode="normal" in2="shape" result="effect2_innerShadow"/>
</filter>
<filter id="filter6_di" x="161.752" y="174.509" width="6.10738" height="22.9005" filterUnits="userSpaceOnUse" color-interpolation-filters="sRGB">
<feFlood flood-opacity="0" result="BackgroundImageFix"/>
<feColorMatrix in="SourceAlpha" type="matrix" values="0 0 0 0 0 0 0 0 0 0 0 0 0 0 0 0 0 0 127 0"/>
<feOffset dx="0.14146"/>
<feColorMatrix type="matrix" values="0 0 0 0 0 0 0 0 0 0 0 0 0 0 0 0 0 0 0.3 0"/>
<feBlend mode="normal" in2="BackgroundImageFix" result="effect1_dropShadow"/>
<feBlend mode="normal" in="SourceGraphic" in2="effect1_dropShadow" result="shape"/>
<feColorMatrix in="SourceAlpha" type="matrix" values="0 0 0 0 0 0 0 0 0 0 0 0 0 0 0 0 0 0 127 0" result="hardAlpha"/>
<feOffset dx="-0.35365"/>
<feGaussianBlur stdDeviation="0.35365"/>
<feComposite in2="hardAlpha" operator="arithmetic" k2="-1" k3="1"/>
<feColorMatrix type="matrix" values="0 0 0 0 0 0 0 0 0 0 0 0 0 0 0 0 0 0 0.3 0"/>
<feBlend mode="normal" in2="shape" result="effect2_innerShadow"/>
</filter>
<filter id="filter7_di" x="306.096" y="133.419" width="36.8175" height="9.78219" filterUnits="userSpaceOnUse" color-interpolation-filters="sRGB">
<feFlood flood-opacity="0" result="BackgroundImageFix"/>
<feColorMatrix in="SourceAlpha" type="matrix" values="0 0 0 0 0 0 0 0 0 0 0 0 0 0 0 0 0 0 127 0"/>
<feOffset dx="-0.35365" dy="0.35365"/>
<feColorMatrix type="matrix" values="0 0 0 0 1 0 0 0 0 1 0 0 0 0 1 0 0 0 0.75 0"/>
<feBlend mode="normal" in2="BackgroundImageFix" result="effect1_dropShadow"/>
<feBlend mode="normal" in="SourceGraphic" in2="effect1_dropShadow" result="shape"/>
<feColorMatrix in="SourceAlpha" type="matrix" values="0 0 0 0 0 0 0 0 0 0 0 0 0 0 0 0 0 0 127 0" result="hardAlpha"/>
<feOffset dy="0.35365"/>
<feGaussianBlur stdDeviation="0.7073"/>
<feComposite in2="hardAlpha" operator="arithmetic" k2="-1" k3="1"/>
<feColorMatrix type="matrix" values="0 0 0 0 0 0 0 0 0 0 0 0 0 0 0 0 0 0 0.25 0"/>
<feBlend mode="normal" in2="shape" result="effect2_innerShadow"/>
</filter>
<filter id="filter8_i" x="352.649" y="138.464" width="8.48971" height="8.84335" filterUnits="userSpaceOnUse" color-interpolation-filters="sRGB">
<feFlood flood-opacity="0" result="BackgroundImageFix"/>
<feBlend mode="normal" in="SourceGraphic" in2="BackgroundImageFix" result="shape"/>
<feColorMatrix in="SourceAlpha" type="matrix" values="0 0 0 0 0 0 0 0 0 0 0 0 0 0 0 0 0 0 127 0" result="hardAlpha"/>
<feOffset dy="0.35365"/>
<feGaussianBlur stdDeviation="0.35365"/>
<feComposite in2="hardAlpha" operator="arithmetic" k2="-1" k3="1"/>
<feColorMatrix type="matrix" values="0 0 0 0 0 0 0 0 0 0 0 0 0 0 0 0 0 0 0.3 0"/>
<feBlend mode="normal" in2="shape" result="effect1_innerShadow"/>
</filter>
<filter id="filter9_i" x="354.064" y="139.879" width="5.6598" height="5.6598" filterUnits="userSpaceOnUse" color-interpolation-filters="sRGB">
<feFlood flood-opacity="0" result="BackgroundImageFix"/>
<feBlend mode="normal" in="SourceGraphic" in2="BackgroundImageFix" result="shape"/>
<feColorMatrix in="SourceAlpha" type="matrix" values="0 0 0 0 0 0 0 0 0 0 0 0 0 0 0 0 0 0 127 0" result="hardAlpha"/>
<feOffset/>
<feGaussianBlur stdDeviation="0.35365"/>
<feComposite in2="hardAlpha" operator="arithmetic" k2="-1" k3="1"/>
<feColorMatrix type="matrix" values="0 0 0 0 0 0 0 0 0 0 0 0 0 0 0 0 0 0 0.1 0"/>
<feBlend mode="normal" in2="shape" result="effect1_innerShadow"/>
</filter>
<linearGradient id="paint0_linear" x1="91" y1="696.817" x2="393.516" y2="739.794" gradientUnits="userSpaceOnUse">
<stop stop-color="#CFD3D8"/>
<stop offset="0.125764" stop-color="#ECEDF0"/>
<stop offset="0.933415" stop-color="#F0F1F2"/>
<stop offset="1" stop-color="#FBFEFF"/>
</linearGradient>
<linearGradient id="paint1_linear" x1="93.1008" y1="697.115" x2="392.115" y2="739.595" gradientUnits="userSpaceOnUse">
<stop stop-color="#CFD3D8"/>
<stop offset="0.125764" stop-color="#ECEDF0"/>
<stop offset="0.933415" stop-color="#F0F1F2"/>
<stop offset="1" stop-color="#FBFEFF"/>
</linearGradient>
<linearGradient id="paint2_linear" x1="230.001" y1="594.454" x2="212.997" y2="714.148" gradientUnits="userSpaceOnUse">
<stop stop-color="white" stop-opacity="0.5"/>
<stop offset="1" stop-color="#D0D5DA"/>
</linearGradient>
<linearGradient id="paint3_linear" x1="101.098" y1="691.107" x2="385.407" y2="731.498" gradientUnits="userSpaceOnUse">
<stop stop-color="#ECEDF0"/>
<stop offset="1" stop-color="#F8F8F8"/>
</linearGradient>
<linearGradient id="paint4_linear" x1="234.835" y1="623.131" x2="222.723" y2="708.386" gradientUnits="userSpaceOnUse">
<stop stop-color="#E3E6EB" stop-opacity="0.01"/>
<stop offset="1" stop-color="#E3E6EB"/>
</linearGradient>
<linearGradient id="paint5_linear" x1="106.807" y1="635.491" x2="101.855" y2="635.491" gradientUnits="userSpaceOnUse">
<stop stop-color="#656668"/>
<stop offset="0.779506" stop-color="#505051" stop-opacity="0.557644"/>
<stop offset="1" stop-color="#434446"/>
</linearGradient>
<linearGradient id="paint6_linear" x1="400.926" y1="677.176" x2="395.268" y2="677.176" gradientUnits="userSpaceOnUse">
<stop stop-color="#656668"/>
<stop offset="0.779506" stop-color="#505051" stop-opacity="0.557644"/>
<stop offset="1" stop-color="#434446"/>
</linearGradient>
<linearGradient id="paint7_linear" x1="175.65" y1="150.906" x2="170.699" y2="150.906" gradientUnits="userSpaceOnUse">
<stop stop-color="#656668"/>
<stop offset="0.779506" stop-color="#505051" stop-opacity="0.557644"/>
<stop offset="1" stop-color="#434446"/>
</linearGradient>
<linearGradient id="paint8_linear" x1="469.77" y1="192.59" x2="464.111" y2="192.59" gradientUnits="userSpaceOnUse">
<stop stop-color="#656668"/>
<stop offset="0.779506" stop-color="#505051" stop-opacity="0.557644"/>
<stop offset="1" stop-color="#434446"/>
</linearGradient>
<linearGradient id="paint9_linear" x1="456.545" y1="276.303" x2="446.996" y2="343.513" gradientUnits="userSpaceOnUse">
<stop stop-color="#B1B8C2"/>
<stop offset="0.0516372" stop-color="#ECEEF1"/>
<stop offset="0.920731" stop-color="#EDEEF1"/>
<stop offset="1" stop-color="#B1B8C2"/>
</linearGradient>
<linearGradient id="paint10_linear" x1="151.783" y1="274.275" x2="145.814" y2="316.291" gradientUnits="userSpaceOnUse">
<stop stop-color="#B1B8C2"/>
<stop offset="0.0516372" stop-color="#ECEEF1"/>
<stop offset="0.920731" stop-color="#EDEEF1"/>
<stop offset="1" stop-color="#B1B8C2"/>
</linearGradient>
<linearGradient id="paint11_linear" x1="159.655" y1="218.867" x2="153.678" y2="260.94" gradientUnits="userSpaceOnUse">
<stop stop-color="#B1B8C2"/>
<stop offset="0.0516372" stop-color="#ECEEF1"/>
<stop offset="0.920731" stop-color="#EDEEF1"/>
<stop offset="1" stop-color="#B1B8C2"/>
</linearGradient>
<linearGradient id="paint12_linear" x1="165.205" y1="174.808" x2="162.087" y2="196.753" gradientUnits="userSpaceOnUse">
<stop stop-color="#B1B8C2"/>
<stop offset="0.0516372" stop-color="#ECEEF1"/>
<stop offset="0.920731" stop-color="#EDEEF1"/>
<stop offset="1" stop-color="#B1B8C2"/>
</linearGradient>
<linearGradient id="paint13_linear" x1="161.997" y1="197.072" x2="164.798" y2="197.47" gradientUnits="userSpaceOnUse">
<stop stop-color="#D0D5DA" stop-opacity="0.01"/>
<stop offset="0.684204" stop-color="#D0D4D9" stop-opacity="0.01"/>
<stop offset="1" stop-color="#D0D4D9"/>
</linearGradient>
<linearGradient id="paint14_linear" x1="164.878" y1="175.115" x2="161.91" y2="196.004" gradientUnits="userSpaceOnUse">
<stop stop-color="#111111"/>
<stop offset="0.153528" stop-color="#FEFEFE"/>
<stop offset="0.831036" stop-color="#FEFEFE"/>
<stop offset="1" stop-color="#1D1D1D"/>
</linearGradient>
<linearGradient id="paint15_linear" x1="342.54" y1="143.17" x2="343.236" y2="138.269" gradientUnits="userSpaceOnUse">
<stop stop-color="white" stop-opacity="0.2"/>
<stop offset="1" stop-opacity="0.3"/>
</linearGradient>
<linearGradient id="paint16_linear" x1="363.004" y1="143.206" x2="357.405" y2="137.335" gradientUnits="userSpaceOnUse">
<stop stop-color="#F5F9FC"/>
<stop offset="1" stop-color="#EAEAEA"/>
</linearGradient>
<radialGradient id="paint17_radial" cx="0" cy="0" r="1" gradientUnits="userSpaceOnUse" gradientTransform="translate(356.825 141.129) rotate(24.0857) scale(3.81866)">
<stop stop-color="white"/>
<stop offset="1" stop-color="#DBDBDC"/>
</radialGradient>
</defs>
</svg>
