<svg width="72" height="72" viewBox="0 0 72 72" fill="none" xmlns="http://www.w3.org/2000/svg">
<rect x="13.9178" y="19.3304" width="44.0731" height="30.1553" rx="4.63928" fill="url(#paint0_linear)"/>
<rect x="13.9178" y="19.3304" width="44.0731" height="30.1553" rx="4.63928" fill="url(#paint1_angular)"/>
<g filter="url(#filter0_b)">
<rect x="13.9178" y="19.3304" width="44.0731" height="30.1553" rx="4.63928" fill="white" fill-opacity="0.02"/>
</g>
<path d="M18.5571 19.3304C15.9949 19.3304 13.9178 21.4074 13.9178 23.9696V55.47C13.9178 56.1412 14.7145 56.4936 15.2112 56.0421L20.6537 51.0944C21.7923 50.0593 23.2758 49.4857 24.8146 49.4857L53.3517 49.4857C55.9139 49.4857 57.991 47.4086 57.991 44.8464V23.9696C57.991 21.4074 55.9139 19.3304 53.3517 19.3304H18.5571Z" fill="url(#paint2_linear)"/>
<path d="M18.5571 19.3304C15.9949 19.3304 13.9178 21.4074 13.9178 23.9696V55.47C13.9178 56.1412 14.7145 56.4936 15.2112 56.0421L20.6537 51.0944C21.7923 50.0593 23.2758 49.4857 24.8146 49.4857L53.3517 49.4857C55.9139 49.4857 57.991 47.4086 57.991 44.8464V23.9696C57.991 21.4074 55.9139 19.3304 53.3517 19.3304H18.5571Z" fill="url(#paint3_angular)"/>
<rect x="17.0107" y="22.4232" width="33.2481" height="23.9696" rx="3.09285" fill="#F1EDFF"/>
<rect x="17.0107" y="22.4232" width="33.2481" height="23.9696" rx="3.09285" fill="url(#paint4_linear)"/>
<circle cx="54.1249" cy="35.5678" r="1.54643" fill="#F1EDFF"/>
<circle cx="54.1249" cy="40.2071" r="1.54643" fill="#F1EDFF"/>
<circle cx="54.1249" cy="44.8464" r="1.54643" fill="#F1EDFF"/>
<path d="M30.9285 15.4643L35.9543 20.1035L40.9802 15.4643" stroke="#532FA1" stroke-width="3.86606" stroke-linecap="round" stroke-linejoin="round"/>
<defs>
<filter id="filter0_b" x="-4.63926" y="0.773251" width="81.1873" height="67.2695" filterUnits="userSpaceOnUse" color-interpolation-filters="sRGB">
<feFlood flood-opacity="0" result="BackgroundImageFix"/>
<feGaussianBlur in="BackgroundImage" stdDeviation="9.27855"/>
<feComposite in2="SourceAlpha" operator="in" result="effect1_backgroundBlur"/>
<feBlend mode="normal" in="SourceGraphic" in2="effect1_backgroundBlur" result="shape"/>
</filter>
<linearGradient id="paint0_linear" x1="22.7612" y1="29.3391" x2="28.9492" y2="46.7672" gradientUnits="userSpaceOnUse">
<stop stop-color="#5A1C97"/>
<stop offset="0.9999" stop-color="#2B25A6"/>
</linearGradient>
<radialGradient id="paint1_angular" cx="0" cy="0" r="1" gradientUnits="userSpaceOnUse" gradientTransform="translate(37.6897 36.1568) rotate(55.0639) scale(8.65127 16.708)">
<stop offset="0.247955" stop-color="#A600C1" stop-opacity="0.17"/>
<stop offset="0.740936" stop-color="#008DAC" stop-opacity="0.45"/>
</radialGradient>
<linearGradient id="paint2_linear" x1="22.7612" y1="31.5825" x2="31.5439" y2="51.7891" gradientUnits="userSpaceOnUse">
<stop stop-color="#5A1C97"/>
<stop offset="0.9999" stop-color="#2B25A6"/>
</linearGradient>
<radialGradient id="paint3_angular" cx="0" cy="0" r="1" gradientUnits="userSpaceOnUse" gradientTransform="translate(37.6897 39.9283) rotate(60.2891) scale(9.99601 17.7015)">
<stop offset="0.247955" stop-color="#A600C1" stop-opacity="0.17"/>
<stop offset="0.740936" stop-color="#008DAC" stop-opacity="0.45"/>
</radialGradient>
<linearGradient id="paint4_linear" x1="29.3821" y1="18.1705" x2="48.7124" y2="46.0062" gradientUnits="userSpaceOnUse">
<stop stop-color="#F1EDFF"/>
<stop offset="0.496879" stop-color="#F1EDFF" stop-opacity="0"/>
<stop offset="0.52813" stop-color="#BCB4DB" stop-opacity="0.31"/>
<stop offset="1" stop-color="white" stop-opacity="0.34"/>
</linearGradient>
</defs>
</svg>
