<svg width="208" height="54" viewBox="0 0 208 54" fill="none" xmlns="http://www.w3.org/2000/svg">
<g clip-path="url(#clip0)">
<path d="M24.0794 6.8996C24.9634 5.83891 26.5398 5.6956 27.6005 6.57951L32 10.2458L36.3995 6.57951C37.4602 5.6956 39.0366 5.83891 39.9206 6.8996C40.8045 7.96029 40.6612 9.53671 39.6005 10.4206L36.5052 13H47C51.4183 13 55 16.5817 55 21V41.031C55.0098 46.0591 57.4112 50.5064 61.0899 53.2206C59.1451 53.7292 57.1042 54 55 54C51.584 54 48.3348 53.2863 45.3931 52H8C3.58172 52 0 48.4183 0 44V21C0 16.5817 3.58172 13 8 13H27.4948L24.3995 10.4206C23.3388 9.53671 23.1955 7.96029 24.0794 6.8996Z" fill="url(#paint0_linear)"/>
<rect x="13" y="18" width="37" height="28" rx="4" fill="#E8E2FF"/>
<circle cx="6.5" cy="43.5" r="2.5" fill="#E8E2FF"/>
<path d="M19 23.5001L19 29.5001" stroke="white" stroke-opacity="0.7" stroke-width="4" stroke-linecap="round"/>
<path d="M79.9131 42.6348C79.9131 49.0947 83.2969 52.4102 89.9619 52.4102H90.3037C94.5078 52.4102 97.3789 50.9062 97.3789 47.9668C97.3789 45.6426 96.0459 44.6172 93.585 44.3438L92.9355 44.2754C90.7822 44.1045 89.8936 43.0107 89.8936 40.4131V22.8789H93.4141C95.7725 22.8789 97.2422 21.4092 97.2422 19.1191C97.2422 16.8291 95.7725 15.3594 93.4141 15.3594H89.8936V11.292C89.8936 8.0791 88.0137 6.09668 84.9033 6.09668C81.793 6.09668 79.9131 8.0791 79.9131 11.292V15.3594H77.999C75.6406 15.3594 74.1367 16.7949 74.1367 19.1191C74.1367 21.4434 75.6406 22.8789 77.999 22.8789H79.9131V42.6348Z" fill="url(#paint1_linear)"/>
<path d="M118.434 52.7861C125.509 52.7861 131.183 50.1201 133.609 45.6084C134.054 44.7881 134.293 43.9678 134.293 43.1816C134.293 40.8916 132.55 39.5244 130.396 39.5244C129.098 39.5244 128.209 39.9004 127.149 40.9941C124.449 44.1729 122.057 45.4033 118.399 45.4033C113.341 45.4033 110.06 41.8486 110.06 36.4141V35.9697H130.978C133.746 35.9697 135.318 34.3975 135.318 31.6289C135.318 21.6826 128.346 14.5732 117.955 14.5732C107.12 14.5732 100.25 22.0586 100.25 33.8506C100.25 45.7109 106.983 52.7861 118.434 52.7861ZM110.162 29.8516C110.504 25.1689 113.683 21.9561 118.058 21.9561C122.433 21.9561 125.509 25.0664 125.714 29.8516H110.162Z" fill="url(#paint2_linear)"/>
<path d="M145.709 52.7178C148.648 52.7178 150.699 50.9404 150.699 47.5225V7.15625C150.699 3.73828 148.648 1.92676 145.709 1.92676C142.804 1.92676 140.719 3.73828 140.719 7.15625V47.5225C140.719 50.9404 142.804 52.7178 145.709 52.7178Z" fill="url(#paint3_linear)"/>
<path d="M162.594 10.8135C165.602 10.8135 167.926 8.52344 167.926 5.65234C167.926 2.74707 165.602 0.491211 162.594 0.491211C159.586 0.491211 157.262 2.74707 157.262 5.65234C157.262 8.52344 159.586 10.8135 162.594 10.8135ZM162.594 52.7178C165.67 52.7178 167.584 50.7695 167.584 47.5225V19.8369C167.584 16.5898 165.67 14.6074 162.594 14.6074C159.483 14.6074 157.604 16.5898 157.604 19.8369V47.5225C157.604 50.7695 159.483 52.7178 162.594 52.7178Z" fill="url(#paint4_linear)"/>
<path d="M191.1 52.7861C198.175 52.7861 203.849 50.1201 206.275 45.6084C206.72 44.7881 206.959 43.9678 206.959 43.1816C206.959 40.8916 205.216 39.5244 203.062 39.5244C201.764 39.5244 200.875 39.9004 199.815 40.9941C197.115 44.1729 194.723 45.4033 191.065 45.4033C186.007 45.4033 182.726 41.8486 182.726 36.4141V35.9697H203.644C206.412 35.9697 207.984 34.3975 207.984 31.6289C207.984 21.6826 201.012 14.5732 190.621 14.5732C179.786 14.5732 172.916 22.0586 172.916 33.8506C172.916 45.7109 179.649 52.7861 191.1 52.7861ZM182.828 29.8516C183.17 25.1689 186.349 21.9561 190.724 21.9561C195.099 21.9561 198.175 25.0664 198.38 29.8516H182.828Z" fill="url(#paint5_linear)"/>
</g>
<defs>
<linearGradient id="paint0_linear" x1="0.000320754" y1="14.9999" x2="22.6782" y2="64.2038" gradientUnits="userSpaceOnUse">
<stop stop-color="#5A1C97"/>
<stop offset="0.9999" stop-color="#2B25A6"/>
</linearGradient>
<linearGradient id="paint1_linear" x1="74.1374" y1="10.2964" x2="88.2895" y2="72.0469" gradientUnits="userSpaceOnUse">
<stop stop-color="#5A1C97"/>
<stop offset="0.9999" stop-color="#2B25A6"/>
</linearGradient>
<linearGradient id="paint2_linear" x1="74.1374" y1="10.2964" x2="88.2895" y2="72.0469" gradientUnits="userSpaceOnUse">
<stop stop-color="#5A1C97"/>
<stop offset="0.9999" stop-color="#2B25A6"/>
</linearGradient>
<linearGradient id="paint3_linear" x1="74.1374" y1="10.2964" x2="88.2895" y2="72.0469" gradientUnits="userSpaceOnUse">
<stop stop-color="#5A1C97"/>
<stop offset="0.9999" stop-color="#2B25A6"/>
</linearGradient>
<linearGradient id="paint4_linear" x1="74.1374" y1="10.2964" x2="88.2895" y2="72.0469" gradientUnits="userSpaceOnUse">
<stop stop-color="#5A1C97"/>
<stop offset="0.9999" stop-color="#2B25A6"/>
</linearGradient>
<linearGradient id="paint5_linear" x1="74.1374" y1="10.2964" x2="88.2895" y2="72.0469" gradientUnits="userSpaceOnUse">
<stop stop-color="#5A1C97"/>
<stop offset="0.9999" stop-color="#2B25A6"/>
</linearGradient>
<clipPath id="clip0">
<rect width="207.984" height="53.5088" fill="white" transform="translate(0 0.491211)"/>
</clipPath>
</defs>
</svg>
