<svg width="122" height="121" viewBox="0 0 122 121" fill="none" xmlns="http://www.w3.org/2000/svg">
<path d="M94.1042 59.1902L93.2926 58.606C93.1565 58.795 93.0907 59.0255 93.1065 59.2578L94.1042 59.1902ZM99.0488 69.7471L99.2226 70.7319C99.6002 70.6652 99.9065 70.3885 100.011 70.0196C100.115 69.6506 99.9998 69.2544 99.7132 68.9997L99.0488 69.7471ZM86.0148 65.474L86.8013 64.8564C86.5294 64.5103 86.0632 64.3825 85.6529 64.5418L86.0148 65.474ZM6.49346 79.1902L7.49117 79.2578C7.50692 79.0255 7.44111 78.795 7.3051 78.606L6.49346 79.1902ZM1.54883 89.7471L0.884464 88.9997C0.597866 89.2544 0.482181 89.6506 0.586671 90.0196C0.691161 90.3885 0.997422 90.6652 1.37504 90.7319L1.54883 89.7471ZM14.5828 85.474L14.9447 84.5418C14.5344 84.3825 14.0682 84.5103 13.7964 84.8564L14.5828 85.474ZM35.189 62.4721L34.4818 63.1792L35.189 62.4721ZM36.168 64.0163L35.2268 64.3542C35.3694 64.7514 35.746 65.0163 36.168 65.0163C36.59 65.0163 36.9665 64.7514 37.1091 64.3542L36.168 64.0163ZM43.0621 62.4721L43.7692 61.765L43.0621 62.4721ZM37.147 62.4721L36.4399 61.765V61.765L37.147 62.4721ZM36.168 76.7474L35.7451 77.6536C36.0131 77.7787 36.3228 77.7787 36.5909 77.6536L36.168 76.7474ZM49.0488 49.2471C49.0488 48.1425 49.9443 47.2471 51.0488 47.2471V45.2471C48.8397 45.2471 47.0488 47.0379 47.0488 49.2471H49.0488ZM51.0488 47.2471C52.1534 47.2471 53.0488 48.1425 53.0488 49.2471H55.0488C55.0488 47.0379 53.258 45.2471 51.0488 45.2471V47.2471ZM67.0488 49.2471C67.0488 50.3516 66.1534 51.2471 65.0488 51.2471V53.2471C67.258 53.2471 69.0488 51.4562 69.0488 49.2471H67.0488ZM65.0488 51.2471C63.9443 51.2471 63.0488 50.3516 63.0488 49.2471H61.0488C61.0488 51.4562 62.8397 53.2471 65.0488 53.2471V51.2471ZM63.0488 49.2471C63.0488 48.1425 63.9443 47.2471 65.0488 47.2471V45.2471C62.8397 45.2471 61.0488 47.0379 61.0488 49.2471H63.0488ZM65.0488 47.2471C66.1534 47.2471 67.0488 48.1425 67.0488 49.2471H69.0488C69.0488 47.0379 67.258 45.2471 65.0488 45.2471V47.2471ZM81.0488 49.2471C81.0488 50.3516 80.1534 51.2471 79.0488 51.2471V53.2471C81.258 53.2471 83.0488 51.4562 83.0488 49.2471H81.0488ZM79.0488 51.2471C77.9443 51.2471 77.0488 50.3516 77.0488 49.2471H75.0488C75.0488 51.4562 76.8397 53.2471 79.0488 53.2471V51.2471ZM77.0488 49.2471C77.0488 48.1425 77.9443 47.2471 79.0488 47.2471V45.2471C76.8397 45.2471 75.0488 47.0379 75.0488 49.2471H77.0488ZM79.0488 47.2471C80.1534 47.2471 81.0488 48.1425 81.0488 49.2471H83.0488C83.0488 47.0379 81.258 45.2471 79.0488 45.2471V47.2471ZM79.6071 29.2471H49.4906V31.2471H79.6071V29.2471ZM49.4906 29.2471C39.0153 29.2471 30.5488 37.8624 30.5488 48.4585H32.5488C32.5488 38.9388 40.1479 31.2471 49.4906 31.2471V29.2471ZM79.6071 31.2471C88.9497 31.2471 96.5488 38.9388 96.5488 48.4585H98.5488C98.5488 37.8624 90.0823 29.2471 79.6071 29.2471V31.2471ZM94.9158 59.7743C97.201 56.5993 98.5488 52.6865 98.5488 48.4585H96.5488C96.5488 52.2556 95.3396 55.7618 93.2926 58.606L94.9158 59.7743ZM94.1042 59.1902C93.1065 59.2578 93.1065 59.2582 93.1065 59.2585C93.1065 59.2587 93.1066 59.2591 93.1066 59.2594C93.1066 59.26 93.1067 59.2607 93.1067 59.2615C93.1069 59.2632 93.107 59.2652 93.1072 59.2676C93.1075 59.2725 93.108 59.279 93.1086 59.287C93.1099 59.303 93.1117 59.3252 93.1142 59.3533C93.1192 59.4096 93.1269 59.4895 93.1383 59.591C93.161 59.7938 93.1983 60.0829 93.2574 60.4403C93.3754 61.1541 93.5815 62.1458 93.9352 63.269C94.6384 65.502 95.9487 68.3294 98.3845 70.4945L99.7132 68.9997C97.6489 67.1648 96.487 64.7137 95.8428 62.6682C95.5229 61.6522 95.3365 60.7546 95.2306 60.114C95.1777 59.7942 95.1451 59.5398 95.1259 59.3685C95.1163 59.2828 95.1101 59.218 95.1064 59.1762C95.1045 59.1554 95.1033 59.1403 95.1026 59.1312C95.1022 59.1267 95.102 59.1237 95.1019 59.1222C95.1018 59.1215 95.1018 59.1211 95.1018 59.1212C95.1018 59.1212 95.1018 59.1213 95.1018 59.1215C95.1018 59.1217 95.1019 59.1219 95.1019 59.122C95.1019 59.1222 95.1019 59.1225 94.1042 59.1902ZM79.6071 67.6698C81.9906 67.6698 84.2734 67.2228 86.3767 66.4063L85.6529 64.5418C83.7763 65.2704 81.7387 65.6698 79.6071 65.6698V67.6698ZM98.875 68.7623C94.8937 69.4649 91.8705 68.4657 89.8407 67.305C88.8208 66.7217 88.0492 66.0957 87.5364 65.6197C87.2803 65.3821 87.0901 65.183 86.9668 65.0472C86.9053 64.9793 86.8606 64.9274 86.8329 64.8945C86.8191 64.8781 86.8095 64.8665 86.8042 64.86C86.8016 64.8567 86.8 64.8548 86.7995 64.8541C86.7993 64.8538 86.7993 64.8539 86.7996 64.8542C86.7998 64.8544 86.8 64.8547 86.8002 64.8551C86.8004 64.8552 86.8007 64.8556 86.8007 64.8557C86.801 64.856 86.8013 64.8564 86.0148 65.474C85.2284 66.0917 85.2287 66.0921 85.2291 66.0926C85.2292 66.0927 85.2296 66.0932 85.2299 66.0936C85.2304 66.0943 85.231 66.0951 85.2318 66.096C85.2332 66.0977 85.2348 66.0998 85.2368 66.1023C85.2407 66.1072 85.2458 66.1135 85.252 66.1212C85.2644 66.1364 85.2813 66.157 85.3028 66.1825C85.3457 66.2334 85.4067 66.3041 85.4857 66.3912C85.6436 66.5652 85.874 66.8055 86.1758 67.0856C86.7787 67.6452 87.6719 68.3686 88.8479 69.0411C91.2101 70.3919 94.704 71.5293 99.2226 70.7319L98.875 68.7623ZM51.1071 85.6698H20.9906V87.6698H51.1071V85.6698ZM68.0488 68.4585C68.0488 77.9781 60.4497 85.6698 51.1071 85.6698V87.6698C61.5823 87.6698 70.0488 79.0545 70.0488 68.4585H68.0488ZM20.9906 49.2471C10.5153 49.2471 2.04883 57.8624 2.04883 68.4585H4.04883C4.04883 58.9388 11.6479 51.2471 20.9906 51.2471V49.2471ZM7.3051 78.606C5.25802 75.7618 4.04883 72.2556 4.04883 68.4585H2.04883C2.04883 72.6865 3.39668 76.5993 5.68182 79.7743L7.3051 78.606ZM6.49346 79.1902C5.49575 79.1225 5.49577 79.1222 5.49579 79.122C5.49579 79.1219 5.49581 79.1217 5.49582 79.1215C5.49583 79.1213 5.49584 79.1212 5.49584 79.1212C5.49584 79.1211 5.49582 79.1215 5.49577 79.1222C5.49566 79.1237 5.49544 79.1267 5.49508 79.1312C5.49438 79.1403 5.49315 79.1554 5.49129 79.1762C5.48758 79.218 5.48136 79.2828 5.47177 79.3685C5.45259 79.5398 5.41996 79.7942 5.36707 80.114C5.26113 80.7546 5.07479 81.6522 4.75482 82.6682C4.11069 84.7137 2.94873 87.1648 0.884464 88.9997L2.21319 90.4945C4.64892 88.3294 5.95928 85.502 6.66247 83.269C7.01616 82.1458 7.22223 81.1541 7.34027 80.4403C7.39938 80.0829 7.43665 79.7938 7.45936 79.591C7.47071 79.4895 7.47844 79.4095 7.48344 79.3533C7.48594 79.3252 7.48776 79.303 7.48901 79.287C7.48963 79.279 7.49012 79.2725 7.49047 79.2676C7.49065 79.2652 7.4908 79.2632 7.49091 79.2615C7.49097 79.2607 7.49102 79.26 7.49106 79.2594C7.49108 79.2591 7.49111 79.2587 7.49112 79.2585C7.49115 79.2582 7.49117 79.2578 6.49346 79.1902ZM20.9906 85.6698C18.859 85.6698 16.8213 85.2704 14.9447 84.5418L14.2209 86.4063C16.3243 87.2228 18.607 87.6698 20.9906 87.6698V85.6698ZM1.37504 90.7319C5.89367 91.5293 9.38754 90.3919 11.7497 89.0411C12.9258 88.3686 13.819 87.6452 14.4218 87.0856C14.7237 86.8055 14.954 86.5652 15.112 86.3912C15.191 86.3041 15.252 86.2334 15.2949 86.1825C15.3163 86.157 15.3332 86.1364 15.3456 86.1212C15.3518 86.1135 15.3569 86.1072 15.3609 86.1023C15.3628 86.0998 15.3645 86.0977 15.3659 86.096C15.3666 86.0951 15.3672 86.0943 15.3678 86.0936C15.3681 86.0932 15.3684 86.0927 15.3686 86.0926C15.3689 86.0921 15.3693 86.0917 14.5828 85.474C13.7964 84.8564 13.7967 84.856 13.7969 84.8557C13.797 84.8556 13.7973 84.8552 13.7974 84.8551C13.7977 84.8547 13.7979 84.8544 13.7981 84.8542C13.7983 84.8539 13.7984 84.8538 13.7981 84.8541C13.7976 84.8548 13.7961 84.8567 13.7934 84.86C13.7882 84.8665 13.7786 84.8781 13.7648 84.8945C13.7371 84.9274 13.6924 84.9793 13.6308 85.0472C13.5076 85.183 13.3173 85.3821 13.0613 85.6197C12.5484 86.0957 11.7769 86.7217 10.7569 87.305C8.72711 88.4657 5.70398 89.4649 1.72261 88.7623L1.37504 90.7319ZM34.4818 63.1792C34.817 63.5144 35.0696 63.9165 35.2268 64.3542L37.1091 63.6784C36.8533 62.9657 36.4418 62.3107 35.8961 61.765L34.4818 63.1792ZM32.2314 62.2471C33.0755 62.2471 33.885 62.5824 34.4818 63.1792L35.8961 61.765C34.9241 60.7931 33.6059 60.2471 32.2314 60.2471V62.2471ZM29.981 63.1792C30.5778 62.5824 31.3873 62.2471 32.2314 62.2471V60.2471C30.8569 60.2471 29.5387 60.7931 28.5668 61.765L29.981 63.1792ZM29.0488 65.4297C29.0488 64.5856 29.3841 63.7761 29.981 63.1792L28.5668 61.765C27.5948 62.7369 27.0488 64.0552 27.0488 65.4297H29.0488ZM42.355 63.1792C42.9518 63.7761 43.2871 64.5856 43.2871 65.4297H45.2871C45.2871 64.0552 44.7411 62.7369 43.7692 61.765L42.355 63.1792ZM40.1045 62.2471C40.9486 62.2471 41.7581 62.5824 42.355 63.1792L43.7692 61.765C42.7972 60.7931 41.479 60.2471 40.1045 60.2471V62.2471ZM37.8541 63.1792C38.451 62.5824 39.2605 62.2471 40.1045 62.2471V60.2471C38.73 60.2471 37.4118 60.7931 36.4399 61.765L37.8541 63.1792ZM37.1091 64.3542C37.2663 63.9165 37.519 63.5143 37.8541 63.1792L36.4399 61.765C35.8941 62.3107 35.4827 62.9657 35.2268 63.6784L37.1091 64.3542ZM27.0488 65.4297C27.0488 68.1855 28.2831 70.7962 29.9377 72.9051C31.5943 75.0165 33.7452 76.7202 35.7451 77.6536L36.5909 75.8413C34.9003 75.0522 32.9915 73.5573 31.5112 71.6706C30.0289 69.7813 29.0488 67.5944 29.0488 65.4297H27.0488ZM36.5909 77.6536C38.5908 76.7202 40.7416 75.0165 42.3982 72.9051C44.0529 70.7962 45.2871 68.1855 45.2871 65.4297H43.2871C43.2871 67.5944 42.307 69.7814 40.8247 71.6706C39.3444 73.5573 37.4357 75.0522 35.7451 75.8413L36.5909 77.6536ZM67.968 66.7654C68.0214 67.3222 68.0488 67.8869 68.0488 68.4585H70.0488C70.0488 67.823 70.0184 67.1944 69.9588 66.5742L67.968 66.7654ZM68.9634 67.6698H79.6071V65.6698H68.9634V67.6698ZM20.9906 51.2471H31.6343V49.2471H20.9906V51.2471ZM30.5488 48.4585C30.5488 49.0939 30.5793 49.7225 30.6388 50.3427L32.6297 50.1515C32.5762 49.5948 32.5488 49.03 32.5488 48.4585H30.5488ZM51.1071 51.2471C51.9708 51.2471 52.8189 51.3127 53.6468 51.439L53.9486 49.4619C53.0212 49.3204 52.0723 49.2471 51.1071 49.2471V51.2471ZM53.6468 51.439C61.2489 52.5995 67.2127 58.9009 67.968 66.7654L69.9588 66.5742C69.1173 57.8121 62.4703 50.7627 53.9486 49.4619L53.6468 51.439ZM53.0488 49.2471C53.0488 49.5342 52.9889 49.8048 52.8819 50.049L54.7136 50.852C54.9295 50.3594 55.0488 49.8159 55.0488 49.2471H53.0488ZM31.6343 51.2471H48.2195V49.2471H31.6343V51.2471ZM48.2195 51.2471H51.1071V49.2471H48.2195V51.2471ZM49.1624 49.9138C49.0891 49.7066 49.0488 49.4826 49.0488 49.2471H47.0488C47.0488 49.7128 47.1288 50.162 47.2767 50.5803L49.1624 49.9138Z" fill="url(#paint0_linear)"/>
<defs>
<linearGradient id="paint0_linear" x1="1.54934" y1="41.4498" x2="25.1879" y2="107.21" gradientUnits="userSpaceOnUse">
<stop stop-color="#5A1C97"/>
<stop offset="0.9999" stop-color="#2B25A6"/>
</linearGradient>
</defs>
</svg>
