<svg width="566" height="22" viewBox="0 0 566 22" fill="none" xmlns="http://www.w3.org/2000/svg">
<path d="M5 10.9077C7.82849 12.9385 16.2331 17 27.2238 17C40.9622 17 50.6599 5 70.8634 5C91.0669 5 96.7238 17 119.352 17C135.11 17 139.959 12.8154 144 10.9077" stroke="#E9EAF1" stroke-width="9" stroke-linecap="round"/>
<path d="M144 11.0923C146.828 9.06154 155.233 5 166.224 5C179.962 5 189.66 17 209.863 17C230.067 17 235.724 5 258.352 5C274.11 5 278.959 9.18462 283 11.0923" stroke="#E9EAF1" stroke-width="9" stroke-linecap="round"/>
<path d="M283 10.9077C285.828 12.9385 294.233 17 305.224 17C318.962 17 328.66 5 348.863 5C369.067 5 374.724 17 397.352 17C413.11 17 417.959 12.8154 422 10.9077" stroke="#E9EAF1" stroke-width="9" stroke-linecap="round"/>
<path d="M422 11.0923C424.828 9.06154 433.233 5 444.224 5C457.962 5 467.66 17 487.863 17C508.067 17 513.724 5 536.352 5C552.11 5 556.959 9.18462 561 11.0923" stroke="#E9EAF1" stroke-width="9" stroke-linecap="round"/>
</svg>
