<svg width="134" height="53" viewBox="0 0 134 53" fill="none" xmlns="http://www.w3.org/2000/svg">
<path d="M5.91309 42.6348C5.91309 49.0947 9.29688 52.4102 15.9619 52.4102H16.3037C20.5078 52.4102 23.3789 50.9062 23.3789 47.9668C23.3789 45.6426 22.0459 44.6172 19.585 44.3438L18.9355 44.2754C16.7822 44.1045 15.8936 43.0107 15.8936 40.4131V22.8789H19.4141C21.7725 22.8789 23.2422 21.4092 23.2422 19.1191C23.2422 16.8291 21.7725 15.3594 19.4141 15.3594H15.8936V11.292C15.8936 8.0791 14.0137 6.09668 10.9033 6.09668C7.79297 6.09668 5.91309 8.0791 5.91309 11.292V15.3594H3.99902C1.64062 15.3594 0.136719 16.7949 0.136719 19.1191C0.136719 21.4434 1.64062 22.8789 3.99902 22.8789H5.91309V42.6348Z" fill="url(#paint0_linear)"/>
<path d="M44.4336 52.7861C51.5088 52.7861 57.1826 50.1201 59.6094 45.6084C60.0537 44.7881 60.293 43.9678 60.293 43.1816C60.293 40.8916 58.5498 39.5244 56.3965 39.5244C55.0977 39.5244 54.209 39.9004 53.1494 40.9941C50.4492 44.1729 48.0566 45.4033 44.3994 45.4033C39.3408 45.4033 36.0596 41.8486 36.0596 36.4141V35.9697H56.9775C59.7461 35.9697 61.3184 34.3975 61.3184 31.6289C61.3184 21.6826 54.3457 14.5732 43.9551 14.5732C33.1201 14.5732 26.25 22.0586 26.25 33.8506C26.25 45.7109 32.9834 52.7861 44.4336 52.7861ZM36.1621 29.8516C36.5039 25.1689 39.6826 21.9561 44.0576 21.9561C48.4326 21.9561 51.5088 25.0664 51.7139 29.8516H36.1621Z" fill="url(#paint1_linear)"/>
<path d="M71.709 52.7178C74.6484 52.7178 76.6992 50.9404 76.6992 47.5225V7.15625C76.6992 3.73828 74.6484 1.92676 71.709 1.92676C68.8037 1.92676 66.7188 3.73828 66.7188 7.15625V47.5225C66.7188 50.9404 68.8037 52.7178 71.709 52.7178Z" fill="url(#paint2_linear)"/>
<path d="M88.5938 10.8135C91.6016 10.8135 93.9258 8.52344 93.9258 5.65234C93.9258 2.74707 91.6016 0.491211 88.5938 0.491211C85.5859 0.491211 83.2617 2.74707 83.2617 5.65234C83.2617 8.52344 85.5859 10.8135 88.5938 10.8135ZM88.5938 52.7178C91.6699 52.7178 93.584 50.7695 93.584 47.5225V19.8369C93.584 16.5898 91.6699 14.6074 88.5938 14.6074C85.4834 14.6074 83.6035 16.5898 83.6035 19.8369V47.5225C83.6035 50.7695 85.4834 52.7178 88.5938 52.7178Z" fill="url(#paint3_linear)"/>
<path d="M117.1 52.7861C124.175 52.7861 129.849 50.1201 132.275 45.6084C132.72 44.7881 132.959 43.9678 132.959 43.1816C132.959 40.8916 131.216 39.5244 129.062 39.5244C127.764 39.5244 126.875 39.9004 125.815 40.9941C123.115 44.1729 120.723 45.4033 117.065 45.4033C112.007 45.4033 108.726 41.8486 108.726 36.4141V35.9697H129.644C132.412 35.9697 133.984 34.3975 133.984 31.6289C133.984 21.6826 127.012 14.5732 116.621 14.5732C105.786 14.5732 98.916 22.0586 98.916 33.8506C98.916 45.7109 105.649 52.7861 117.1 52.7861ZM108.828 29.8516C109.17 25.1689 112.349 21.9561 116.724 21.9561C121.099 21.9561 124.175 25.0664 124.38 29.8516H108.828Z" fill="url(#paint4_linear)"/>
<defs>
<linearGradient id="paint0_linear" x1="0.137422" y1="10.2964" x2="14.2895" y2="72.0469" gradientUnits="userSpaceOnUse">
<stop stop-color="#5A1C97"/>
<stop offset="0.9999" stop-color="#2B25A6"/>
</linearGradient>
<linearGradient id="paint1_linear" x1="0.137422" y1="10.2964" x2="14.2895" y2="72.0469" gradientUnits="userSpaceOnUse">
<stop stop-color="#5A1C97"/>
<stop offset="0.9999" stop-color="#2B25A6"/>
</linearGradient>
<linearGradient id="paint2_linear" x1="0.137422" y1="10.2964" x2="14.2895" y2="72.0469" gradientUnits="userSpaceOnUse">
<stop stop-color="#5A1C97"/>
<stop offset="0.9999" stop-color="#2B25A6"/>
</linearGradient>
<linearGradient id="paint3_linear" x1="0.137422" y1="10.2964" x2="14.2895" y2="72.0469" gradientUnits="userSpaceOnUse">
<stop stop-color="#5A1C97"/>
<stop offset="0.9999" stop-color="#2B25A6"/>
</linearGradient>
<linearGradient id="paint4_linear" x1="0.137422" y1="10.2964" x2="14.2895" y2="72.0469" gradientUnits="userSpaceOnUse">
<stop stop-color="#5A1C97"/>
<stop offset="0.9999" stop-color="#2B25A6"/>
</linearGradient>
</defs>
</svg>
